<svg width="36" height="35" viewBox="0 0 36 35" fill="none" xmlns="http://www.w3.org/2000/svg">
<path d="M16.1613 6.99624C16.1613 6.47171 16.3697 5.96867 16.7406 5.59777C17.1115 5.22687 17.6146 5.0185 18.1391 5.0185C18.6636 5.0185 19.1667 5.22687 19.5376 5.59777C19.9085 5.96867 20.1168 6.47171 20.1168 6.99624V7.3788H20.6632V4.97461H15.4297V7.3788H16.1613V6.99624Z" fill="#990000"/>
<path d="M16.8359 10.0741V10.4567H19.4451V10.0741C19.4451 9.72812 19.3077 9.39629 19.063 9.15163C18.8183 8.90698 18.4865 8.76953 18.1405 8.76953C17.7945 8.76953 17.4627 8.90698 17.218 9.15163C16.9734 9.39629 16.8359 9.72812 16.8359 10.0741Z" fill="#990000"/>
<path d="M16.1613 10.0734C16.1613 9.54886 16.3697 9.04581 16.7406 8.67492C17.1115 8.30402 17.6146 8.09565 18.1391 8.09565C18.6636 8.09565 19.1667 8.30402 19.5376 8.67492C19.9085 9.04581 20.1168 9.54886 20.1168 10.0734V10.456H20.6632V8.05176H15.4297V10.456H16.1613V10.0734Z" fill="#990000"/>
<path d="M16.8359 6.99697V7.37952H19.4451V6.99697C19.4451 6.65097 19.3077 6.31914 19.063 6.07449C18.8183 5.82983 18.4865 5.69238 18.1405 5.69238C17.7945 5.69238 17.4627 5.82983 17.218 6.07449C16.9734 6.31914 16.8359 6.65097 16.8359 6.99697Z" fill="#990000"/>
<path d="M16.1613 13.1514C16.1613 12.6269 16.3697 12.1239 16.7406 11.753C17.1115 11.3821 17.6146 11.1737 18.1391 11.1737C18.6636 11.1737 19.1667 11.3821 19.5376 11.753C19.9085 12.1239 20.1168 12.6269 20.1168 13.1514V13.5341H20.6632V11.1299H15.4297V13.5341H16.1613V13.1514Z" fill="#990000"/>
<path d="M16.8359 13.1513V13.5339H19.4451V13.1513C19.4451 12.8053 19.3077 12.4734 19.063 12.2288C18.8183 11.9841 18.4865 11.8467 18.1405 11.8467C17.7945 11.8467 17.4627 11.9841 17.218 12.2288C16.9734 12.4734 16.8359 12.8053 16.8359 13.1513Z" fill="#990000"/>
<path d="M16.8359 16.2284V16.611H19.4451V16.2284C19.4451 15.8824 19.3077 15.5506 19.063 15.3059C18.8183 15.0613 18.4865 14.9238 18.1405 14.9238C17.7945 14.9238 17.4627 15.0613 17.218 15.3059C16.9734 15.5506 16.8359 15.8824 16.8359 16.2284Z" fill="#990000"/>
<path d="M16.1613 19.7194C16.1613 19.1949 16.3697 18.6918 16.7406 18.3209C17.1115 17.95 17.6146 17.7417 18.1391 17.7417C18.6636 17.7417 19.1667 17.95 19.5376 18.3209C19.9085 18.6918 20.1168 19.1949 20.1168 19.7194V20.102H20.6632V17.2842H15.4297V20.102H16.1613V19.7194Z" fill="#990000"/>
<path d="M16.1613 16.2287C16.1613 15.7042 16.3697 15.2012 16.7406 14.8303C17.1115 14.4594 17.6146 14.251 18.1391 14.251C18.6636 14.251 19.1667 14.4594 19.5376 14.8303C19.9085 15.2012 20.1168 15.7042 20.1168 16.2287V16.6113H20.6632V14.207H15.4297V16.6112H16.1613V16.2287Z" fill="#990000"/>
<path d="M25.0386 5.13085C25.0403 5.07644 25.0276 5.02255 25.0018 4.97461H21.3376V7.3788H25.0386V5.13085Z" fill="#990000"/>
<path d="M21.3376 2.73828H23.0358V4.3019H21.3376V2.73828Z" fill="#990000"/>
<path d="M26.959 11.2861C26.959 11.1907 26.9051 11.1299 26.8767 11.1299H21.3376V13.5341H26.959V11.2861Z" fill="#990000"/>
<path d="M26.0088 8.20807C26.0122 8.15128 25.9937 8.09535 25.9571 8.05176H21.3376V10.456H26.0088V8.20807Z" fill="#990000"/>
<path d="M24.2511 1.91952C24.2511 1.88392 24.2441 1.84867 24.2305 1.81578C24.2169 1.78289 24.1969 1.75301 24.1717 1.72784C24.1466 1.70266 24.1167 1.6827 24.0838 1.66907C24.0509 1.65545 24.0157 1.64844 23.9801 1.64844C23.9445 1.64844 23.9092 1.65545 23.8763 1.66907C23.8434 1.6827 23.8136 1.70266 23.7884 1.72784C23.7632 1.75301 23.7432 1.78289 23.7296 1.81578C23.716 1.84867 23.709 1.88392 23.709 1.91952V4.3019H24.2511V1.91952Z" fill="#990000"/>
<path d="M19.7268 2.73828H20.6646V4.3019H19.7268V2.73828Z" fill="#990000"/>
<path d="M27.6691 14.3633C27.6691 14.28 27.6157 14.207 27.5547 14.207H21.3376V16.6112H27.6691V14.3633Z" fill="#990000"/>
<path d="M17.6933 2.7727C17.6933 2.68343 17.7288 2.59782 17.7919 2.5347C17.855 2.47158 17.9407 2.43612 18.0299 2.43612C18.1192 2.43612 18.2048 2.47158 18.2679 2.5347C18.331 2.59782 18.3665 2.68343 18.3665 2.7727V4.30124H19.0531V2.73527C19.0542 2.59372 19.0273 2.45335 18.9739 2.32225C18.9205 2.19115 18.8417 2.07192 18.742 1.97143C18.6423 1.87094 18.5237 1.79118 18.3931 1.73675C18.2624 1.68232 18.1222 1.6543 17.9807 1.6543C17.8391 1.6543 17.699 1.68232 17.5683 1.73675C17.4376 1.79118 17.319 1.87094 17.2193 1.97143C17.1196 2.07192 17.0408 2.19115 16.9874 2.32225C16.934 2.45335 16.9071 2.59372 16.9082 2.73527V4.30124H17.6936L17.6933 2.7727Z" fill="#990000"/>
<path d="M15.4297 2.73828H16.2342V4.3019H15.4297V2.73828Z" fill="#990000"/>
<path d="M28.5907 17.4402C28.5906 17.3988 28.5741 17.3591 28.5448 17.3299C28.5155 17.3006 28.4758 17.2842 28.4344 17.2842H21.3376V20.102H28.5907V17.4402Z" fill="#990000"/>
<path d="M16.8359 19.7196V20.1022H19.4451V19.7196C19.4451 19.3736 19.3077 19.0418 19.063 18.7971C18.8183 18.5525 18.4865 18.415 18.1405 18.415C17.7945 18.415 17.4627 18.5525 17.218 18.7971C16.9734 19.0418 16.8359 19.3736 16.8359 19.7196Z" fill="#990000"/>
<path d="M18.0279 26.1045C17.5922 26.1051 17.1745 26.2785 16.8664 26.5866C16.5584 26.8948 16.3852 27.3126 16.3848 27.7483V31.6856H19.6711V27.7483C19.6707 27.3126 19.4974 26.8948 19.1894 26.5866C18.8813 26.2784 18.4636 26.1051 18.0279 26.1045Z" fill="#990000"/>
<path d="M12.135 22.6982H13.3077V31.6853H12.135V22.6982Z" fill="#990000"/>
<path d="M24.4395 22.6982H27.6425V31.6853H24.4395V22.6982Z" fill="#990000"/>
<path d="M22.5938 22.6982H23.7665V31.6853H22.5938V22.6982Z" fill="#990000"/>
<path d="M21.9211 31.6853V22.6982H13.9805V31.6853H15.7118V27.748C15.7101 27.4428 15.7688 27.1402 15.8845 26.8578C16.0002 26.5753 16.1705 26.3185 16.3858 26.102C16.601 25.8856 16.8569 25.7139 17.1388 25.5967C17.4206 25.4795 17.7228 25.4192 18.0281 25.4192C18.3333 25.4192 18.6355 25.4795 18.9174 25.5967C19.1992 25.7139 19.4551 25.8856 19.6704 26.102C19.8856 26.3185 20.056 26.5753 20.1717 26.8578C20.2873 27.1402 20.346 27.4428 20.3444 27.748V31.6853H21.9211Z" fill="#990000"/>
<path d="M13.0488 2.73828H14.7572V4.3019H13.0488V2.73828Z" fill="#990000"/>
<path d="M6.59766 22.6982H7.7703V31.6853H6.59766V22.6982Z" fill="#990000"/>
<path d="M4.98438 32.3584H31.0165V33.2863H4.98438V32.3584Z" fill="#990000"/>
<path d="M11.4619 31.6853V22.6982H8.44336V31.6853H11.4619ZM9.07115 23.7746C9.07115 23.6854 9.10661 23.5997 9.16973 23.5366C9.23285 23.4735 9.31846 23.438 9.40773 23.438C9.49699 23.438 9.5826 23.4735 9.64573 23.5366C9.70885 23.5997 9.74431 23.6854 9.74431 23.7746V24.4221C9.74431 24.5114 9.70885 24.597 9.64573 24.6601C9.5826 24.7233 9.49699 24.7587 9.40773 24.7587C9.31846 24.7587 9.23285 24.7233 9.16973 24.6601C9.10661 24.597 9.07115 24.5114 9.07115 24.4221V23.7746ZM9.07115 25.9267C9.07115 25.8374 9.10661 25.7518 9.16973 25.6887C9.23285 25.6256 9.31846 25.5901 9.40773 25.5901C9.49699 25.5901 9.5826 25.6256 9.64573 25.6887C9.70885 25.7518 9.74431 25.8374 9.74431 25.9267V29.0856C9.74431 29.1749 9.70885 29.2605 9.64573 29.3236C9.5826 29.3867 9.49699 29.4222 9.40773 29.4222C9.31846 29.4222 9.23285 29.3867 9.16973 29.3236C9.10661 29.2605 9.07115 29.1749 9.07115 29.0856V25.9267Z" fill="#990000"/>
<path d="M28.3167 22.6982H29.4894V31.6853H28.3167V22.6982Z" fill="#990000"/>
<path d="M14.7579 11.1299H9.20897C9.1807 11.1299 9.12671 11.1905 9.12671 11.2861V13.5341H14.7582L14.7579 11.1299Z" fill="#990000"/>
<path d="M14.7578 8.05176H10.1281C10.0916 8.09538 10.0732 8.15129 10.0766 8.20807V10.456H14.7578V8.05176Z" fill="#990000"/>
<path d="M12.3765 1.91898C12.3771 1.88301 12.3705 1.8473 12.3571 1.81391C12.3437 1.78052 12.3238 1.75012 12.2986 1.72449C12.2734 1.69886 12.2433 1.6785 12.2101 1.66461C12.177 1.65071 12.1413 1.64355 12.1054 1.64355C12.0694 1.64355 12.0338 1.65071 12.0006 1.66461C11.9675 1.6785 11.9374 1.69886 11.9121 1.72449C11.8869 1.75012 11.867 1.78052 11.8537 1.81391C11.8403 1.8473 11.8337 1.88301 11.8343 1.91898V4.30135H12.3765V1.91898Z" fill="#990000"/>
<path d="M14.7579 4.97461H11.0836C11.0578 5.02255 11.0451 5.07644 11.0468 5.13085V7.3788H14.7579V4.97461Z" fill="#990000"/>
<path d="M30.539 21.9995V21.4004C30.5389 21.2347 30.473 21.0759 30.3559 20.9587C30.2388 20.8416 30.08 20.7756 29.9144 20.7754H6.17157C6.00591 20.7756 5.84711 20.8415 5.73 20.9587C5.61289 21.0759 5.54704 21.2347 5.54688 21.4004V22.0253H30.513C30.5199 22.0253 30.5264 22.0226 30.5313 22.0177C30.5362 22.0129 30.5389 22.0063 30.539 21.9995Z" fill="#990000"/>
<path d="M14.7593 17.2842H7.65213C7.61073 17.2843 7.57105 17.3008 7.5418 17.3301C7.51255 17.3594 7.49611 17.3991 7.49609 17.4405V20.102H14.7595L14.7593 17.2842Z" fill="#990000"/>
<path d="M14.758 14.207H8.5307C8.47011 14.207 8.41626 14.28 8.41626 14.3633V16.6112H14.758V14.207Z" fill="#990000"/>
</svg>
