<svg width="19" height="19" viewBox="0 0 19 19" fill="none" xmlns="http://www.w3.org/2000/svg">
<g clip-path="url(#clip0_132_1367)">
<path d="M9.44574 5.16328C8.3007 2.98845 6.44913 0.703125 6.44913 0.703125C6.44913 0.703125 2.56885 5.49203 2.56885 7.80229C2.56885 9.71958 3.95947 11.3119 5.78706 11.6261C5.93269 11.1874 6.12418 10.7156 6.36355 10.2064C6.82139 9.23241 7.4549 8.12375 8.24647 6.91118C8.66059 6.27684 9.0727 5.68282 9.44574 5.16328Z" fill="#009606"/>
<path d="M12.2678 12.6915L12.2616 12.6887C12.0074 12.5725 11.5266 12.5725 11.2723 12.6887L11.2687 12.6903C10.751 12.9268 9.98241 12.9345 9.4507 12.7145C9.32532 13.0794 9.29443 13.3179 9.29443 13.4644C9.29443 14.8277 10.4036 15.9369 11.767 15.9369C13.1303 15.9369 14.2395 14.8277 14.2395 13.4644C14.2395 13.318 14.2086 13.0794 14.0832 12.7146C13.5519 12.9346 12.7832 12.9269 12.2678 12.6915Z" fill="#009606"/>
<path d="M11.7671 3.8457C11.7671 3.8457 6.49756 10.3492 6.49756 13.4866C6.49756 16.3968 8.85679 18.7561 11.7671 18.7561C14.6773 18.7561 17.0365 16.3968 17.0365 13.4866C17.0366 10.3492 11.7671 3.8457 11.7671 3.8457ZM11.7671 16.995C9.82046 16.995 8.23676 15.4113 8.23676 13.4647C8.23676 13.0274 8.37004 12.5075 8.64418 11.8752L8.799 11.5181L9.18597 11.5598C9.42841 11.5858 9.64547 11.6421 9.83111 11.7269L9.83728 11.7297C10.0916 11.8459 10.5724 11.8459 10.8267 11.7297L10.8302 11.7281C11.3654 11.4836 12.1686 11.4836 12.7012 11.7269L12.7074 11.7297C12.9617 11.8459 13.4425 11.8459 13.6968 11.7297L13.7035 11.7267C13.8886 11.6421 14.1057 11.5859 14.3481 11.5598L14.7351 11.5182L14.8899 11.8752C15.164 12.5075 15.2973 13.0274 15.2973 13.4647C15.2973 15.4113 13.7137 16.995 11.7671 16.995Z" fill="#009606"/>
</g>
<defs>
<clipPath id="clip0_132_1367">
<rect width="18.0527" height="18.0527" fill="white" transform="translate(0.776855 0.703613)"/>
</clipPath>
</defs>
</svg>
