<svg xmlns="http://www.w3.org/2000/svg" width="21" height="20" viewBox="0 0 21 20" fill="none">
  <path d="M10.7622 0.219727C5.36027 0.219727 0.981995 4.598 0.981995 9.99991C0.981995 15.4018 5.36027 19.7801 10.7622 19.7801C16.1641 19.7801 20.5423 15.4046 20.5423 9.99991C20.5423 4.5952 16.1641 0.219727 10.7622 0.219727ZM15.3268 10.6202C15.3268 11.0513 14.9736 11.4018 14.5452 11.4018H12.1975V13.7495C12.1975 14.1806 11.8442 14.5311 11.4159 14.5311H10.1113C9.68018 14.5311 9.32966 14.1779 9.32966 13.7495V11.4018H6.98197C6.55084 11.4018 6.20032 11.0486 6.20032 10.6202V9.31563C6.20032 8.8845 6.55357 8.53398 6.98197 8.53398H9.32966V6.18629C9.32966 5.75515 9.68291 5.40467 10.1113 5.40467H11.4159C11.847 5.40467 12.1975 5.75792 12.1975 6.18629V8.53398H14.5452C14.9763 8.53398 15.3268 8.88726 15.3268 9.31563V10.6202Z" fill="black"/>
</svg>