<svg width="19" height="19" viewBox="0 0 19 19" fill="none" xmlns="http://www.w3.org/2000/svg">
<g clip-path="url(#clip0_132_1348)">
<path d="M14.5633 2.16876V0H5.04329V2.16876C3.8377 2.41448 2.92773 3.48294 2.92773 4.76V16.4661C2.92773 17.341 3.63951 18.0527 4.5144 18.0527H15.0922C15.9671 18.0527 16.6788 17.341 16.6788 16.4661V4.76C16.6788 3.48294 15.7689 2.41448 14.5633 2.16876ZM15.6211 16.4661C15.6211 16.7577 15.3838 16.995 15.0922 16.995H4.5144C4.22277 16.995 3.98551 16.7577 3.98551 16.4661V15.1967H15.6211V16.4661ZM11.2137 9.55526L9.80329 12.5523V10.613H8.39292L9.80329 7.616V9.55526H11.2137ZM15.6211 4.97155H3.98551V4.76C3.98551 3.88511 4.69729 3.17333 5.57218 3.17333H14.0344C14.9093 3.17333 15.6211 3.88511 15.6211 4.76V4.97155Z" fill="#0032E6"/>
</g>
<defs>
<clipPath id="clip0_132_1348">
<rect width="18.0527" height="18.0527" fill="white" transform="translate(0.776855)"/>
</clipPath>
</defs>
</svg>
