<svg width="29" height="30" viewBox="0 0 29 30" fill="none" xmlns="http://www.w3.org/2000/svg">
<g id="Show" clip-path="url(#clip0_118_2177)">
<g id="Group">
<path id="Vector" d="M14.1449 9.37598C11.0953 9.37598 8.61426 11.857 8.61426 14.9067C8.61426 17.9563 11.0953 20.4373 14.1449 20.4373C17.1946 20.4373 19.6756 17.9563 19.6756 14.9067C19.6756 11.857 17.1946 9.37598 14.1449 9.37598ZM14.1449 18.2251C12.3152 18.2251 10.8265 16.7364 10.8265 14.9067C10.8265 13.0769 12.3152 11.5882 14.1449 11.5882C15.9747 11.5882 17.4633 13.0769 17.4633 14.9067C17.4633 16.7364 15.9747 18.2251 14.1449 18.2251Z" fill="#E3A300"/>
<path id="Vector_2" d="M27.9379 14.3214C26.8532 12.5806 21.3332 4.95117 14.1439 4.95117C6.95622 4.95117 1.43472 12.5805 0.349879 14.3214L-0.0146484 14.9064L0.349879 15.4914C1.43461 17.2322 6.95462 24.8616 14.1439 24.8616C21.3316 24.8616 26.8531 17.2323 27.9379 15.4914L28.3024 14.9064L27.9379 14.3214ZM14.1439 22.6493C8.56697 22.6493 3.97507 16.8004 2.6341 14.9055C3.97258 13.009 8.55271 7.16344 14.1439 7.16344C19.7204 7.16344 24.3121 13.0115 25.6537 14.9073C24.3152 16.8038 19.7351 22.6493 14.1439 22.6493Z" fill="#E3A300"/>
</g>
</g>
<defs>
<clipPath id="clip0_118_2177">
<rect width="28.3171" height="28.3171" fill="white" transform="translate(-0.00390625 0.748047)"/>
</clipPath>
</defs>
</svg>
