<svg xmlns="http://www.w3.org/2000/svg" width="23" height="23" viewBox="0 0 23 23" fill="none">
  <g clip-path="url(#clip0_240_3894)">
    <path d="M6.3283 8.64496H8.5885V15.3499C8.5885 16.0301 9.14007 16.581 9.81964 16.581H13.1801C13.8596 16.581 14.4112 16.0302 14.4112 15.3499V8.64496H16.6707C17.045 8.64496 17.3815 8.41958 17.5254 8.07368C17.6678 7.72918 17.5886 7.33093 17.3241 7.06646L12.1532 1.89489C11.792 1.53447 11.2069 1.53447 10.845 1.89489L5.67495 7.06646C5.41044 7.33093 5.33118 7.7285 5.47439 8.07368C5.61823 8.4189 5.95399 8.64496 6.3283 8.64496Z" fill="black"/>
    <path d="M21.5558 11.158C20.9431 11.158 20.4461 11.6551 20.4461 12.2684V16.9117C20.4461 18.3026 19.3138 19.4342 17.9228 19.4342H5.07609C3.68509 19.4342 2.55356 18.3026 2.55356 16.9117V12.2684C2.55356 11.6551 2.05575 11.158 1.4431 11.158C0.829718 11.158 0.332642 11.6551 0.332642 12.2685V16.9117C0.332642 19.5272 2.46051 21.6552 5.07609 21.6552H17.9228C20.5384 21.6552 22.6663 19.5272 22.6663 16.9117V12.2685C22.6663 11.6551 22.1692 11.158 21.5558 11.158Z" fill="black"/>
  </g>
  <defs>
    <clipPath id="clip0_240_3894">
      <rect width="22.3337" height="22.3337" fill="white" transform="translate(0.332642 0.473022)"/>
    </clipPath>
  </defs>
</svg>