<svg width="32" height="32" viewBox="0 0 32 32" fill="none" xmlns="http://www.w3.org/2000/svg">
<path fill-rule="evenodd" clip-rule="evenodd" d="M10.7292 16.6329C10.3403 16.2453 10.3403 15.6134 10.7292 15.2258C11.1168 14.8369 11.7487 14.8369 12.1363 15.2258L14.5296 17.6191L20.0211 12.1276C20.4087 11.74 21.0405 11.74 21.4281 12.1276C21.8171 12.5165 21.8171 13.1471 21.4281 13.536L15.2344 19.731C14.8455 20.12 14.215 20.12 13.8261 19.731L10.7292 16.6329Z" fill="#3CBB00"/>
<path fill-rule="evenodd" clip-rule="evenodd" d="M14.3953 2.35558C14.8414 1.90957 15.4467 1.65869 16.0785 1.65869C16.7104 1.65869 17.3157 1.90957 17.7617 2.35558L19.6798 4.27369C19.7674 4.3613 19.8922 4.40245 20.0156 4.38254L22.6943 3.9591C23.3182 3.85954 23.9554 4.01352 24.4664 4.38387C24.9762 4.75555 25.3186 5.31439 25.4182 5.93694L25.8416 8.61566C25.8615 8.73911 25.9385 8.8453 26.05 8.90238L28.4659 10.1329C29.0287 10.4196 29.4548 10.9187 29.65 11.5187C29.8451 12.1187 29.7933 12.7731 29.5066 13.3346L28.2761 15.7518C28.219 15.8633 28.219 15.9934 28.2761 16.1049L29.5066 18.5221C29.7933 19.0836 29.8451 19.7381 29.65 20.338C29.4548 20.938 29.0287 21.4371 28.4659 21.7239L26.05 22.9544C25.9385 23.0115 25.8615 23.1177 25.8416 23.2411L25.4182 25.9198C25.3186 26.5424 24.9762 27.1012 24.4664 27.4729C23.9554 27.8432 23.3182 27.9972 22.6943 27.8977L20.0156 27.4742C19.8922 27.4543 19.7674 27.4955 19.6798 27.5831L17.7617 29.5012C17.3157 29.9472 16.7104 30.1981 16.0785 30.1981C15.4467 30.1981 14.8414 29.9472 14.3953 29.5012L12.4772 27.5831C12.3896 27.4955 12.2648 27.4543 12.1414 27.4742L9.46268 27.8977C8.83879 27.9972 8.20164 27.8432 7.69058 27.4729C7.18086 27.1012 6.83838 26.5424 6.73883 25.9198L6.31538 23.2411C6.29547 23.1177 6.21848 23.0115 6.10698 22.9544L3.69109 21.7239C3.12826 21.4371 2.70216 20.938 2.50703 20.338C2.3119 19.7381 2.36367 19.0836 2.6504 18.5221L3.88091 16.1049C3.93799 15.9934 3.93799 15.8633 3.88091 15.7518L2.6504 13.3346C2.36367 12.7731 2.3119 12.1187 2.50703 11.5187C2.70216 10.9187 3.12826 10.4196 3.69109 10.1329L6.10698 8.90238C6.21848 8.8453 6.29547 8.73911 6.31538 8.61566L6.73883 5.93694C6.83838 5.31439 7.18086 4.75555 7.69058 4.38387C8.20164 4.01352 8.83879 3.85954 9.46268 3.9591L12.1414 4.38254C12.2648 4.40245 12.3896 4.3613 12.4772 4.27369L14.3953 2.35558ZM15.8037 3.76397L13.8856 5.68208C13.3467 6.22101 12.5821 6.46924 11.8295 6.34977L9.15074 5.925C9.04853 5.90907 8.94499 5.93429 8.86136 5.99535C8.77773 6.05508 8.72198 6.14668 8.70605 6.24889L8.28128 8.9276C8.16181 9.68025 7.69058 10.3307 7.01095 10.6758L4.59373 11.9076C4.50214 11.9541 4.43311 12.0364 4.40125 12.1346C4.3694 12.2329 4.37736 12.3391 4.42382 12.4306L5.65566 14.8479C6.00211 15.5262 6.00211 16.3306 5.65566 17.0089L4.42382 19.4261C4.37736 19.5177 4.3694 19.6239 4.40125 19.7221C4.43311 19.8204 4.50214 19.9027 4.59373 19.9491L7.01095 21.181C7.69058 21.5261 8.16181 22.1765 8.28128 22.9292L8.70605 25.6079C8.72198 25.7101 8.77773 25.8017 8.86136 25.8614C8.94499 25.9225 9.04853 25.9477 9.15074 25.9318L11.8295 25.507C12.5821 25.3875 13.3467 25.6358 13.8856 26.1747L15.8037 28.0928C15.8767 28.1658 15.975 28.207 16.0785 28.207C16.182 28.207 16.2803 28.1658 16.3533 28.0928L18.2714 26.1747C18.8103 25.6358 19.5749 25.3875 20.3276 25.507L23.0063 25.9318C23.1085 25.9477 23.212 25.9225 23.2957 25.8614C23.3793 25.8017 23.435 25.7101 23.451 25.6079L23.8757 22.9292C23.9952 22.1765 24.4664 21.5261 25.1461 21.181L27.5633 19.9491C27.6549 19.9027 27.7239 19.8204 27.7558 19.7221C27.7876 19.6239 27.7797 19.5177 27.7332 19.4261L26.5014 17.0089C26.1549 16.3306 26.1549 15.5262 26.5014 14.8479L27.7332 12.4306C27.7797 12.3391 27.7876 12.2329 27.7558 12.1346C27.7239 12.0364 27.6549 11.9541 27.5633 11.9076L25.1461 10.6758C24.4664 10.3307 23.9952 9.68025 23.8757 8.9276L23.451 6.24889C23.435 6.14668 23.3793 6.05508 23.2957 5.99535C23.212 5.93429 23.1085 5.90907 23.0063 5.925L20.3276 6.34977C19.5749 6.46924 18.8103 6.22101 18.2714 5.68208L16.3533 3.76397C16.2803 3.69096 16.182 3.64981 16.0785 3.64981C15.975 3.64981 15.8767 3.69096 15.8037 3.76397Z" fill="#3CBB00"/>
</svg>
