<svg xmlns="http://www.w3.org/2000/svg" width="28" height="28" viewBox="0 0 28 28" fill="none">
<path d="M13.0209 13.806C14.1865 13.806 15.3259 13.4603 16.2951 12.8127C17.2643 12.1652 18.0196 11.2447 18.4657 10.1679C18.9118 9.09097 19.0285 7.906 18.8011 6.76279C18.5737 5.61957 18.0124 4.56946 17.1882 3.74525C16.3639 2.92104 15.3138 2.35975 14.1706 2.13235C13.0274 1.90495 11.8424 2.02166 10.7656 2.46772C9.68867 2.91378 8.76824 3.66915 8.12066 4.63832C7.47309 5.60749 7.12744 6.74693 7.12744 7.91254C7.12922 9.47503 7.75071 10.973 8.85556 12.0779C9.9604 13.1827 11.4584 13.8042 13.0209 13.806ZM13.0209 3.70294C13.8535 3.70294 14.6673 3.94983 15.3596 4.41239C16.0519 4.87495 16.5914 5.53239 16.91 6.3016C17.2286 7.0708 17.312 7.91721 17.1496 8.73379C16.9872 9.55037 16.5862 10.3005 15.9975 10.8892C15.4088 11.4779 14.6587 11.8788 13.8421 12.0412C13.0255 12.2037 12.1791 12.1203 11.4099 11.8017C10.6407 11.4831 9.98328 10.9435 9.52072 10.2513C9.05817 9.559 8.81128 8.74512 8.81128 7.91254C8.81262 6.7965 9.25656 5.72655 10.0457 4.93738C10.8349 4.14822 11.9048 3.70428 13.0209 3.70294Z" fill="#6E6E6E"/>
<path d="M22.9953 21.3832L24.7819 19.5975C24.9352 19.4387 25.0201 19.2261 25.0182 19.0053C25.0163 18.7846 24.9277 18.5734 24.7716 18.4173C24.6155 18.2612 24.4044 18.1727 24.1836 18.1707C23.9629 18.1688 23.7502 18.2537 23.5914 18.4071L21.8049 20.1928L20.0183 18.4071C19.8595 18.2537 19.6468 18.1688 19.4261 18.1707C19.2053 18.1727 18.9942 18.2612 18.8381 18.4173C18.682 18.5734 18.5934 18.7846 18.5915 19.0053C18.5896 19.2261 18.6745 19.4387 18.8278 19.5975L20.6144 21.3832L18.8278 23.1689C18.7474 23.2466 18.6833 23.3395 18.6392 23.4422C18.595 23.5449 18.5718 23.6554 18.5708 23.7672C18.5699 23.879 18.5912 23.9899 18.6335 24.0933C18.6758 24.1968 18.7383 24.2908 18.8174 24.3699C18.8964 24.4489 18.9904 24.5114 19.0939 24.5538C19.1974 24.5961 19.3082 24.6174 19.42 24.6164C19.5318 24.6154 19.6423 24.5922 19.745 24.5481C19.8477 24.504 19.9406 24.4398 20.0183 24.3594L21.8049 22.5737L23.5914 24.3594C23.7502 24.5128 23.9629 24.5976 24.1836 24.5957C24.4044 24.5938 24.6155 24.5053 24.7716 24.3492C24.9277 24.1931 25.0163 23.9819 25.0182 23.7612C25.0201 23.5404 24.9352 23.3277 24.7819 23.1689L22.9953 21.3832Z" fill="#6E6E6E"/>
<path d="M16.7532 23.909H4.98315C4.84538 23.9098 4.70942 23.8776 4.58667 23.815C4.46392 23.7525 4.35794 23.6614 4.27762 23.5495C4.20346 23.4523 4.15394 23.3385 4.13326 23.218C4.11259 23.0975 4.12139 22.9738 4.15891 22.8574C4.56675 21.6587 5.21309 20.5551 6.05897 19.6129C6.90486 18.6708 7.93276 17.9097 9.08073 17.3755C10.2287 16.8413 11.4729 16.5451 12.7384 16.5048C14.004 16.4645 15.2645 16.6808 16.4442 17.1408C16.652 17.2227 16.8838 17.2188 17.0886 17.1298C17.2935 17.0409 17.4546 16.8741 17.5366 16.6664C17.6185 16.4586 17.6146 16.2268 17.5256 16.0219C17.4366 15.8171 17.2699 15.6559 17.0622 15.574C15.6685 15.0298 14.179 14.774 12.6837 14.8219C11.1884 14.8698 9.71833 15.2205 8.36242 15.8528C7.0065 16.4851 5.79291 17.3858 4.79503 18.5005C3.79714 19.6151 3.0357 20.9206 2.55674 22.338C2.43718 22.7072 2.40736 23.0995 2.46973 23.4826C2.53211 23.8656 2.68488 24.2282 2.9154 24.5404C3.15313 24.866 3.46424 25.1309 3.8235 25.3137C4.18275 25.4966 4.58004 25.5922 4.98315 25.5928H16.7532C16.9765 25.5928 17.1906 25.5041 17.3485 25.3462C17.5064 25.1883 17.5951 24.9742 17.5951 24.7509C17.5951 24.5276 17.5064 24.3135 17.3485 24.1556C17.1906 23.9977 16.9765 23.909 16.7532 23.909Z" fill="#6E6E6E"/>
</svg>