<svg width="21" height="22" viewBox="0 0 21 22" fill="none" xmlns="http://www.w3.org/2000/svg">
<g clip-path="url(#clip0_545_196)">
<path d="M10.4442 15.2539C10.884 15.2539 11.2405 15.6104 11.2405 16.0502C11.2405 16.49 10.884 16.8465 10.4442 16.8465H9.32938C8.88956 16.8465 8.5331 16.49 8.5331 16.0502C8.5331 15.6104 8.88956 15.2539 9.32938 15.2539H10.4442ZM16.9737 10.9938C16.9737 10.554 16.6172 10.1975 16.1774 10.1975H9.32938C8.88956 10.1975 8.5331 10.554 8.5331 10.9938C8.5331 11.4336 8.88956 11.7901 9.32938 11.7901H16.1774C16.6172 11.7901 16.9737 11.4336 16.9737 10.9938ZM9.32938 7.01243H16.1774C16.6172 7.01243 16.9737 6.65597 16.9737 6.21615C16.9737 5.77633 16.6172 5.41988 16.1774 5.41988H9.32938C8.88956 5.41988 8.5331 5.77633 8.5331 6.21615C8.5331 6.65597 8.88956 7.01243 9.32938 7.01243ZM6.14427 15.2539H5.34799C4.90817 15.2539 4.55171 15.6104 4.55171 16.0502C4.55171 16.49 4.90817 16.8465 5.34799 16.8465H6.14427C6.58409 16.8465 6.94055 16.49 6.94055 16.0502C6.94055 15.6104 6.58409 15.2539 6.14427 15.2539ZM6.14427 10.1975H5.34799C4.90817 10.1975 4.55171 10.554 4.55171 10.9938C4.55171 11.4336 4.90817 11.7901 5.34799 11.7901H6.14427C6.58409 11.7901 6.94055 11.4336 6.94055 10.9938C6.94055 10.554 6.58409 10.1975 6.14427 10.1975ZM6.14427 5.41988H5.34799C4.90817 5.41988 4.55171 5.77633 4.55171 6.21615C4.55171 6.65597 4.90817 7.01243 5.34799 7.01243H6.14427C6.58409 7.01243 6.94055 6.65597 6.94055 6.21615C6.94055 5.77633 6.58409 5.41988 6.14427 5.41988ZM20.7219 19.9462C21.0328 20.2573 21.0328 20.7615 20.7219 21.0724C20.5664 21.2279 20.3625 21.3056 20.1588 21.3056C19.955 21.3056 19.7512 21.2279 19.5956 21.0725L18.2486 19.7255C17.7122 20.0461 17.0855 20.2307 16.4163 20.2307C14.4405 20.2307 12.833 18.6232 12.833 16.6474C12.833 14.6716 14.4405 13.0642 16.4163 13.0642C18.392 13.0642 19.9995 14.6716 19.9995 16.6474C19.9995 17.3785 19.7793 18.0589 19.4018 18.6264L20.7219 19.9462ZM16.4163 18.6381C17.514 18.6381 18.407 17.7451 18.407 16.6474C18.407 15.5497 17.514 14.6567 16.4163 14.6567C15.3186 14.6567 14.4256 15.5497 14.4256 16.6474C14.4256 17.7451 15.3186 18.6381 16.4163 18.6381ZM17.7699 0.920898H3.75543C1.9991 0.920898 0.570312 2.34969 0.570312 4.10601V18.1205C0.570312 19.8769 1.9991 21.3056 3.75543 21.3056H11.9571C12.3969 21.3056 12.7534 20.9492 12.7534 20.5094C12.7534 20.0695 12.3969 19.7131 11.9571 19.7131H3.75543C2.87734 19.7131 2.16287 18.9986 2.16287 18.1205V4.10601C2.16287 3.22793 2.87734 2.51346 3.75543 2.51346H17.7699C18.648 2.51346 19.3625 3.22793 19.3625 4.10601V11.9892C19.3625 12.429 19.719 12.7855 20.1588 12.7855C20.5986 12.7855 20.9551 12.429 20.9551 11.9892V4.10601C20.9551 2.34969 19.5263 0.920898 17.7699 0.920898Z" fill="#00C31F"/>
</g>
<defs>
<clipPath id="clip0_545_196">
<rect width="20.3848" height="20.3848" fill="white" transform="translate(0.570312 0.920898)"/>
</clipPath>
</defs>
</svg>
