<svg xmlns="http://www.w3.org/2000/svg" width="28" height="27" viewBox="0 0 28 27" fill="none">
<g clip-path="url(#clip0_321_2856)">
<path d="M13.7354 13.1867C15.4789 13.1867 16.9884 12.5613 18.2222 11.3276C19.4556 10.094 20.0811 8.58465 20.0811 6.84093C20.0811 5.09782 19.4558 3.58827 18.222 2.3543C16.9882 1.12093 15.4787 0.495605 13.7354 0.495605C11.9917 0.495605 10.4823 1.12093 9.24874 2.3545C8.01518 3.58807 7.38965 5.09762 7.38965 6.84093C7.38965 8.58465 8.01518 10.0942 9.24874 11.3278C10.4827 12.5611 11.9923 13.1867 13.7354 13.1867ZM10.3406 3.44616C11.2871 2.49963 12.3975 2.03953 13.7354 2.03953C15.0731 2.03953 16.1836 2.49963 17.1304 3.44616C18.0769 4.39289 18.5372 5.50345 18.5372 6.84093C18.5372 8.17882 18.0769 9.28918 17.1304 10.2359C16.1836 11.1826 15.0731 11.6427 13.7354 11.6427C12.3979 11.6427 11.2875 11.1824 10.3406 10.2359C9.39387 9.28938 8.93357 8.17882 8.93357 6.84093C8.93357 5.50345 9.39387 4.39289 10.3406 3.44616Z" fill="#178CC8"/>
<path d="M24.8386 20.7548C24.803 20.2415 24.731 19.6815 24.6251 19.0901C24.5182 18.4943 24.3805 17.9311 24.2157 17.4163C24.0452 16.8843 23.8139 16.3589 23.5274 15.8553C23.2305 15.3327 22.8816 14.8776 22.49 14.5032C22.0806 14.1114 21.5793 13.7964 20.9996 13.5667C20.4219 13.3381 19.7817 13.2224 19.0969 13.2224C18.8279 13.2224 18.5678 13.3327 18.0655 13.6598C17.7564 13.8614 17.3948 14.0945 16.9911 14.3524C16.646 14.5723 16.1785 14.7783 15.601 14.9649C15.0376 15.1472 14.4655 15.2397 13.9007 15.2397C13.3363 15.2397 12.7642 15.1472 12.2004 14.9649C11.6235 14.7786 11.1558 14.5725 10.8112 14.3526C10.4114 14.0971 10.0496 13.864 9.73586 13.6596C9.23395 13.3325 8.97385 13.2222 8.7049 13.2222C8.01988 13.2222 7.37988 13.3381 6.80239 13.5669C6.22309 13.7962 5.72159 14.1112 5.31174 14.5034C4.92018 14.878 4.57123 15.3329 4.27455 15.8553C3.98852 16.3589 3.75696 16.8841 3.58651 17.4165C3.42189 17.9313 3.2842 18.4943 3.17726 19.0901C3.07113 19.6807 2.99937 20.2409 2.9638 20.7554C2.92882 21.2586 2.91113 21.7822 2.91113 22.3112C2.91113 23.6865 3.34832 24.7999 4.21043 25.621C5.06189 26.4312 6.18832 26.8421 7.55857 26.8421H20.2444C21.6143 26.8421 22.7407 26.4312 23.5923 25.621C24.4547 24.8005 24.8918 23.6867 24.8918 22.311C24.8916 21.7802 24.8738 21.2565 24.8386 20.7548ZM22.5278 24.5024C21.9652 25.0379 21.2183 25.2982 20.2442 25.2982H7.55857C6.5843 25.2982 5.83737 25.0379 5.27495 24.5026C4.72319 23.9773 4.45505 23.2604 4.45505 22.3112C4.45505 21.8175 4.47133 21.3301 4.5039 20.8622C4.53566 20.4031 4.60058 19.8988 4.69686 19.3629C4.79194 18.8336 4.91294 18.3369 5.05686 17.8873C5.19495 17.4561 5.38329 17.0292 5.61686 16.6179C5.83978 16.226 6.09626 15.8897 6.37928 15.6188C6.644 15.3653 6.97767 15.1578 7.37083 15.0023C7.73445 14.8583 8.1431 14.7796 8.58671 14.7677C8.64078 14.7964 8.73706 14.8513 8.89304 14.953C9.21043 15.1599 9.57626 15.3958 9.98068 15.6541C10.4366 15.9448 11.0239 16.2073 11.7256 16.4338C12.443 16.6658 13.1747 16.7836 13.9009 16.7836C14.6271 16.7836 15.359 16.6658 16.076 16.434C16.7783 16.2071 17.3654 15.9448 17.8219 15.6537C18.2358 15.3892 18.5913 15.1601 18.9087 14.953C19.0647 14.8515 19.161 14.7964 19.2151 14.7677C19.6589 14.7796 20.0675 14.8583 20.4313 15.0023C20.8243 15.1578 21.158 15.3655 21.4227 15.6188C21.7057 15.8895 21.9622 16.2258 22.1851 16.6181C22.4189 17.0292 22.6074 17.4563 22.7453 17.8871C22.8894 18.3373 23.0106 18.8338 23.1055 19.3627C23.2016 19.8996 23.2667 20.4041 23.2985 20.8624V20.8628C23.3312 21.3289 23.3477 21.8161 23.3479 22.3112C23.3477 23.2606 23.0796 23.9773 22.5278 24.5024Z" fill="#178CC8"/>
</g>
<defs>
<clipPath id="clip0_321_2856">
<rect width="26.3461" height="26.3462" fill="white" transform="translate(0.748047 0.495605)"/>
</clipPath>
</defs>
</svg>