<svg xmlns="http://www.w3.org/2000/svg" width="28" height="29" viewBox="0 0 28 29" fill="none">
  <path d="M5.70536 19.2121C8.46706 22.5133 11.7915 25.1126 15.586 26.9518C17.0306 27.6364 18.9627 28.4487 21.1152 28.5879C21.2486 28.5937 21.3763 28.5995 21.5097 28.5995C22.9544 28.5995 24.1147 28.1006 25.0605 27.0736C25.0663 27.0678 25.0779 27.0562 25.0837 27.0446C25.4202 26.6385 25.8031 26.273 26.2034 25.8842C26.4761 25.6231 26.7546 25.3505 27.0215 25.072C28.2573 23.784 28.2573 22.1478 27.0099 20.9004L23.523 17.4135C22.9312 16.7985 22.2233 16.4736 21.4807 16.4736C20.7381 16.4736 20.0244 16.7985 19.4152 17.4077L17.3381 19.4848C17.1467 19.3745 16.9494 19.2759 16.7638 19.1831C16.5317 19.067 16.317 18.9568 16.1255 18.8349C14.2341 17.6339 12.5168 16.0674 10.8748 14.0542C10.0452 13.004 9.48819 12.1222 9.09947 11.2229C9.64484 10.7297 10.1554 10.2133 10.6486 9.70857C10.8226 9.52871 11.0025 9.34886 11.1823 9.169C11.8089 8.54239 12.1455 7.81716 12.1455 7.08032C12.1455 6.34348 11.8147 5.61824 11.1823 4.99164L9.45338 3.26268C9.25031 3.05961 9.05885 2.86235 8.86159 2.65928C8.47866 2.26475 8.07833 1.85862 7.6838 1.4931C7.08621 0.907109 6.38418 0.599609 5.64154 0.599609C4.9047 0.599609 4.19687 0.907109 3.57607 1.4989L1.40616 3.66881C0.617107 4.45786 0.170361 5.41518 0.0775311 6.52334C-0.0327047 7.90999 0.222578 9.38367 0.883993 11.1648C1.89932 13.9207 3.43102 16.4794 5.70536 19.2121ZM1.49319 6.64518C1.56281 5.87352 1.85871 5.22952 2.41569 4.67253L4.57399 2.51423C4.9105 2.18933 5.28182 2.02107 5.64154 2.02107C5.99546 2.02107 6.35517 2.18933 6.68588 2.52584C7.07461 2.88555 7.44013 3.26268 7.83465 3.66301C8.03192 3.86607 8.23498 4.06914 8.43805 4.27801L10.167 6.00697C10.5267 6.36669 10.7124 6.7322 10.7124 7.09192C10.7124 7.45164 10.5267 7.81716 10.167 8.17687C9.98715 8.35673 9.8073 8.54239 9.62744 8.72225C9.08786 9.26763 8.5831 9.784 8.02612 10.2772C8.01451 10.2888 8.00871 10.2946 7.99711 10.3062C7.51555 10.7877 7.59098 11.2461 7.70701 11.5942C7.71281 11.6116 7.71862 11.6232 7.72442 11.6406C8.17116 12.714 8.79197 13.7351 9.76088 14.9535C11.5014 17.1002 13.3348 18.7653 15.3539 20.0475C15.6034 20.21 15.8703 20.3376 16.1197 20.4653C16.3518 20.5813 16.5665 20.6915 16.758 20.8134C16.7812 20.825 16.7986 20.8366 16.8218 20.8482C17.0132 20.9468 17.1989 20.9932 17.3846 20.9932C17.8487 20.9932 18.1504 20.6973 18.249 20.5987L20.4189 18.4288C20.7555 18.0923 21.121 17.9124 21.4807 17.9124C21.9216 17.9124 22.2814 18.1851 22.5076 18.4288L26.0062 21.9215C26.7024 22.6178 26.6966 23.372 25.9888 24.1089C25.7451 24.3699 25.4898 24.6194 25.2171 24.8805C24.811 25.275 24.3874 25.6812 24.0045 26.1395C23.3373 26.859 22.5424 27.1955 21.5155 27.1955C21.4169 27.1955 21.3124 27.1897 21.2138 27.1839C19.3108 27.062 17.5412 26.3194 16.2126 25.687C12.6038 23.9406 9.43598 21.4632 6.80772 18.3186C4.64362 15.7135 3.18734 13.2883 2.22423 10.6891C1.62663 9.09357 1.40036 7.81136 1.49319 6.64518Z" fill="#F3BC2E"/>
</svg>