<svg xmlns="http://www.w3.org/2000/svg" width="19" height="20" viewBox="0 0 19 20" fill="none">
<g clip-path="url(#clip0_321_2859)">
<path d="M9.25989 19.3535C4.15414 19.3535 0.000337601 15.1995 0.000337601 10.0937C0.000337601 4.98795 4.15414 0.833984 9.25989 0.833984C14.3656 0.833984 18.5195 4.98795 18.5195 10.0937C18.5195 15.1995 14.3656 19.3535 9.25989 19.3535ZM9.25989 2.10157C4.85308 2.10157 1.26793 5.68681 1.26784 10.0937C1.26784 14.5006 4.853 18.0858 9.25989 18.0859C13.6667 18.0858 17.2519 14.5006 17.2519 10.0936C17.2519 5.6869 13.6667 2.10157 9.25989 2.10157Z" fill="#39AE41"/>
<path d="M10.5031 14.0597C10.2556 14.3071 9.85424 14.307 9.60681 14.0597C9.3592 13.8121 9.3592 13.4108 9.60689 13.1632L12.0423 10.7279L4.98975 10.7272C4.63972 10.7271 4.35604 10.4434 4.35604 10.0932C4.35612 9.7432 4.63981 9.4596 4.98983 9.4596L12.0427 9.46028L9.60664 7.02439C9.35912 6.77688 9.35912 6.37547 9.60664 6.12804C9.73044 6.00433 9.89261 5.94238 10.0549 5.94238C10.217 5.94238 10.3792 6.00433 10.503 6.12796L14.0209 9.64577C14.1398 9.76458 14.2065 9.92573 14.2065 10.0939C14.2065 10.2621 14.1397 10.4231 14.0208 10.5422L10.5031 14.0597Z" fill="#39AE41"/>
</g>
<defs>
<clipPath id="clip0_321_2859">
<rect width="18.5195" height="18.5195" fill="white" transform="matrix(-1 0 0 1 18.5195 0.833984)"/>
</clipPath>
</defs>
</svg>