<svg xmlns="http://www.w3.org/2000/svg" width="33" height="32" viewBox="0 0 33 32" fill="none">
  <path fill-rule="evenodd" clip-rule="evenodd" d="M6.9544 27.036C7.4404 21.968 11.7154 18 16.9094 18C17.2424 18 17.5714 18.016 17.8964 18.048C18.4454 18.102 18.9354 17.7 18.9884 17.15C19.0424 16.601 18.6404 16.112 18.0914 16.058C17.7024 16.02 17.3074 16 16.9094 16C10.6754 16 5.5464 20.763 4.9644 26.845C4.9114 27.395 5.3144 27.884 5.8644 27.936C6.4134 27.989 6.9024 27.585 6.9544 27.036Z" fill="#F3BC2E"/>
  <path fill-rule="evenodd" clip-rule="evenodd" d="M16.8594 4C13.5474 4 10.8594 6.689 10.8594 10C10.8594 13.311 13.5474 16 16.8594 16C20.1704 16 22.8594 13.311 22.8594 10C22.8594 6.689 20.1704 4 16.8594 4ZM16.8594 6C19.0674 6 20.8594 7.792 20.8594 10C20.8594 12.208 19.0674 14 16.8594 14C14.6514 14 12.8594 12.208 12.8594 10C12.8594 7.792 14.6514 6 16.8594 6Z" fill="#F3BC2E"/>
  <path fill-rule="evenodd" clip-rule="evenodd" d="M22.4484 18.9888C19.9194 18.9888 17.7004 21.0448 16.7004 22.1978C16.6984 22.1998 16.6964 22.2018 16.6944 22.2048C16.0634 22.9448 16.0634 24.0338 16.6964 24.7738L16.7004 24.7778C17.6994 25.9318 19.9194 27.9888 22.4484 27.9888C24.9774 27.9888 27.1964 25.9328 28.1964 24.7798C28.1984 24.7778 28.2004 24.7758 28.2024 24.7728C28.8334 24.0328 28.8334 22.9438 28.2004 22.2038L28.1964 22.1998C27.1974 21.0458 24.9774 18.9888 22.4484 18.9888ZM26.6684 23.4898C25.9124 24.3578 24.3274 25.9888 22.4484 25.9888C20.5694 25.9888 18.9834 24.3568 18.2284 23.4878C18.9844 22.6198 20.5694 20.9888 22.4484 20.9888C24.3274 20.9888 25.9134 22.6208 26.6684 23.4898Z" fill="#F3BC2E"/>
  <path d="M22.4485 24.7388C23.1388 24.7388 23.6985 24.1791 23.6985 23.4888C23.6985 22.7984 23.1388 22.2388 22.4485 22.2388C21.7581 22.2388 21.1985 22.7984 21.1985 23.4888C21.1985 24.1791 21.7581 24.7388 22.4485 24.7388Z" fill="#F3BC2E"/>
</svg>