<svg width="19" height="20" viewBox="0 0 19 20" fill="none" xmlns="http://www.w3.org/2000/svg">
<g id="Bin" clip-path="url(#clip0_118_2185)">
<g id="Group">
<path id="Vector" d="M16.7188 3.84934H13.1132V3.12821C13.1132 1.93533 12.1427 0.964844 10.9498 0.964844H8.0653C6.87242 0.964844 5.90193 1.93533 5.90193 3.12821V3.84934H2.29632C1.89804 3.84934 1.5752 4.17218 1.5752 4.57046C1.5752 4.96874 1.89804 5.29158 2.29632 5.29158C2.69395 5.29158 3.01744 5.61508 3.01744 6.01271V17.2622C3.01744 18.4551 3.98793 19.4256 5.18081 19.4256H13.8343C15.0272 19.4256 15.9977 18.4551 15.9977 17.2622V6.01271C15.9977 5.61508 16.3212 5.29158 16.7188 5.29158C17.1171 5.29158 17.4399 4.96874 17.4399 4.57046C17.4399 4.17218 17.1171 3.84934 16.7188 3.84934ZM7.34418 3.12821C7.34418 2.73059 7.66768 2.40709 8.0653 2.40709H10.9498C11.3474 2.40709 11.6709 2.73059 11.6709 3.12821V3.84934H7.34418V3.12821ZM14.5554 6.01271V17.2622C14.5554 17.6599 14.2319 17.9834 13.8343 17.9834H5.18081C4.78318 17.9834 4.45969 17.6599 4.45969 17.2622V6.01271C4.45969 5.75992 4.4157 5.51729 4.33565 5.29158H14.6795C14.5994 5.51729 14.5554 5.75992 14.5554 6.01271Z" fill="#CA1414"/>
<path id="Vector_2" d="M6.62249 6.73389C6.22421 6.73389 5.90137 7.05673 5.90137 7.45501V15.82C5.90137 16.2183 6.22421 16.5412 6.62249 16.5412C7.02077 16.5412 7.34361 16.2183 7.34361 15.82V7.45501C7.34361 7.05673 7.02077 6.73389 6.62249 6.73389Z" fill="#CA1414"/>
<path id="Vector_3" d="M9.5053 6.73389C9.10703 6.73389 8.78418 7.05673 8.78418 7.45501V15.82C8.78418 16.2183 9.10703 16.5412 9.5053 16.5412C9.90358 16.5412 10.2264 16.2183 10.2264 15.82V7.45501C10.2264 7.05673 9.90358 6.73389 9.5053 6.73389Z" fill="#CA1414"/>
<path id="Vector_4" d="M11.6689 7.45501V15.82C11.6689 16.2183 11.9918 16.5412 12.3901 16.5412C12.7883 16.5412 13.1112 16.2183 13.1112 15.82V7.45501C13.1112 7.05673 12.7883 6.73389 12.3901 6.73389C11.9918 6.73389 11.6689 7.05673 11.6689 7.45501Z" fill="#CA1414"/>
</g>
</g>
<defs>
<clipPath id="clip0_118_2185">
<rect width="18.4608" height="18.4608" fill="white" transform="translate(0.277344 0.964844)"/>
</clipPath>
</defs>
</svg>
