<svg xmlns="http://www.w3.org/2000/svg" width="23" height="24" viewBox="0 0 23 24" fill="none">
  <g clip-path="url(#clip0_326_894)">
    <path d="M8.1042 13.1505C8.1042 12.8719 7.87819 12.6461 7.59932 12.6461H5.83749C5.55894 12.6461 5.33289 12.8719 5.33289 13.1505V14.9121C5.33289 15.1911 5.55894 15.4169 5.83749 15.4169H7.59932C7.87819 15.4169 8.1042 15.1911 8.1042 14.9121V13.1505Z" fill="#353535"/>
    <path d="M12.5072 13.1505C12.5072 12.8719 12.2812 12.6461 12.0029 12.6461H10.2408C9.96226 12.6461 9.73621 12.8719 9.73621 13.1505V14.9121C9.73621 15.1911 9.96226 15.4169 10.2408 15.4169H12.0029C12.2812 15.4169 12.5072 15.1911 12.5072 14.9121V13.1505Z" fill="#353535"/>
    <path d="M16.9105 13.1505C16.9105 12.8719 16.6845 12.6461 16.4059 12.6461H14.6441C14.3652 12.6461 14.1392 12.8719 14.1392 13.1505V14.9121C14.1392 15.1911 14.3652 15.4169 14.6441 15.4169H16.4059C16.6845 15.4169 16.9105 15.1911 16.9105 14.9121V13.1505Z" fill="#353535"/>
    <path d="M8.1042 17.554C8.1042 17.2749 7.87819 17.0493 7.59932 17.0493H5.83749C5.55894 17.0493 5.33289 17.2749 5.33289 17.554V19.3153C5.33289 19.5941 5.55894 19.8199 5.83749 19.8199H7.59932C7.87819 19.8199 8.1042 19.594 8.1042 19.3153V17.554Z" fill="#353535"/>
    <path d="M12.5072 17.554C12.5072 17.2749 12.2812 17.0493 12.0029 17.0493H10.2408C9.96226 17.0493 9.73621 17.2749 9.73621 17.554V19.3153C9.73621 19.5941 9.96226 19.8199 10.2408 19.8199H12.0029C12.2812 19.8199 12.5072 19.594 12.5072 19.3153V17.554Z" fill="#353535"/>
    <path d="M16.9105 17.554C16.9105 17.2749 16.6845 17.0493 16.4062 17.0493H14.6441C14.3652 17.0493 14.1392 17.2749 14.1392 17.554V19.3153C14.1392 19.5941 14.3652 19.8199 14.6441 19.8199H16.4062C16.6845 19.8199 16.9105 19.594 16.9105 19.3153V17.554Z" fill="#353535"/>
    <path d="M20.0609 3.35567V6.04637C20.0609 7.26255 19.0743 8.24259 17.8583 8.24259H16.4688C15.2527 8.24259 14.2531 7.26255 14.2531 6.04637V3.34601H7.99039V6.04637C7.99039 7.26255 6.99075 8.24259 5.77485 8.24259H4.38512C3.16918 8.24259 2.18261 7.26255 2.18261 6.04637V3.35567C1.11987 3.3877 0.246582 4.26709 0.246582 5.34798V21.1168C0.246582 22.218 1.13914 23.1224 2.24035 23.1224H20.0031C21.1027 23.1224 21.9969 22.2161 21.9969 21.1168V5.34798C21.9969 4.26709 21.1236 3.3877 20.0609 3.35567ZM19.4155 20.1348C19.4155 20.6107 19.0297 20.9968 18.5536 20.9968H3.65191C3.17583 20.9968 2.78997 20.6107 2.78997 20.1348V11.9897C2.78997 11.5136 3.17578 11.1275 3.65191 11.1275H18.5535C19.0296 11.1275 19.4155 11.5136 19.4155 11.9897L19.4155 20.1348Z" fill="#353535"/>
    <path d="M4.38022 6.80005H5.7546C6.17176 6.80005 6.51 6.46231 6.51 6.04515V1.63408C6.51 1.21687 6.17176 0.878906 5.7546 0.878906H4.38022C3.96301 0.878906 3.62482 1.21687 3.62482 1.63408V6.04515C3.62482 6.46231 3.96301 6.80005 4.38022 6.80005Z" fill="#353535"/>
    <path d="M16.4512 6.80005H17.8255C18.2424 6.80005 18.5807 6.46231 18.5807 6.04515V1.63408C18.5807 1.21687 18.2425 0.878906 17.8255 0.878906H16.4512C16.034 0.878906 15.6958 1.21687 15.6958 1.63408V6.04515C15.6958 6.46231 16.034 6.80005 16.4512 6.80005Z" fill="#353535"/>
  </g>
  <defs>
    <clipPath id="clip0_326_894">
      <rect width="22.2434" height="22.2434" fill="white" transform="translate(0 0.878906)"/>
    </clipPath>
  </defs>
</svg>