<svg xmlns="http://www.w3.org/2000/svg" width="23" height="23" viewBox="0 0 23 23" fill="none">
  <g clip-path="url(#clip0_320_2845)">
    <path d="M12.6448 11.4999L15.372 8.77265C15.7547 8.38996 15.7547 7.76974 15.372 7.38705C14.9893 7.00436 14.3691 7.00436 13.9864 7.38705L11.2592 10.1143L8.53199 7.38705C8.1493 7.00436 7.52908 7.00436 7.14639 7.38705C6.7637 7.76974 6.7637 8.38996 7.14639 8.77265L9.8736 11.4999L7.14639 14.2271C6.7637 14.6098 6.7637 15.23 7.14639 15.6127C7.52908 15.9954 8.1493 15.9954 8.53199 15.6127L11.2592 12.8855L13.9864 15.6127C14.3691 15.9954 14.9893 15.9954 15.372 15.6127C15.7547 15.23 15.7547 14.6098 15.372 14.2271L12.6448 11.4999Z" fill="#FF5252"/>
    <path d="M11.2605 22.4966C8.32214 22.4966 5.55974 21.353 3.48354 19.2768C1.40734 17.2006 0.263672 14.4382 0.263672 11.4998C0.263672 8.56146 1.40734 5.79906 3.48354 3.72286C5.55974 1.64666 8.32214 0.502991 11.2605 0.502991C14.1988 0.502991 16.9612 1.64666 19.0374 3.72286C21.1136 5.79906 22.2573 8.56146 22.2573 11.4998C22.2573 14.4382 21.1136 17.2006 19.0374 19.2768C16.9612 21.353 14.1988 22.4966 11.2605 22.4966ZM11.2605 2.66716C6.3911 2.66716 2.42785 6.63042 2.42785 11.4998C2.42785 16.3692 6.3911 20.3325 11.2605 20.3325C16.1299 20.3325 20.0931 16.3692 20.0931 11.4998C20.0931 6.63042 16.1299 2.66716 11.2605 2.66716Z" fill="#FF5252"/>
  </g>
  <defs>
    <clipPath id="clip0_320_2845">
      <rect width="22.5215" height="22.5215" fill="white" transform="translate(0 0.239136)"/>
    </clipPath>
  </defs>
</svg>