<svg xmlns="http://www.w3.org/2000/svg" width="21" height="21" viewBox="0 0 21 21" fill="none">
<g clip-path="url(#clip0_118_1409)">
<path d="M10.6982 0.951172C5.19037 0.951172 0.73291 5.40821 0.73291 10.9165C0.73291 16.4244 5.18994 20.8818 10.6982 20.8818C16.2061 20.8818 20.6636 16.4248 20.6636 10.9165C20.6636 5.4086 16.2065 0.951172 10.6982 0.951172ZM10.6982 19.3248C6.05097 19.3248 2.28999 15.5641 2.28999 10.9165C2.28999 6.26919 6.05062 2.50826 10.6982 2.50826C15.3455 2.50826 19.1065 6.26888 19.1065 10.9165C19.1065 15.5638 15.3459 19.3248 10.6982 19.3248Z" fill="#252525"/>
<path d="M14.1075 13.2248L11.7991 10.9163L14.1075 8.60787C14.4116 8.30385 14.4116 7.81091 14.1076 7.50685C13.8035 7.20279 13.3106 7.20283 13.0066 7.50685L10.6981 9.81531L8.38959 7.50685C8.0856 7.20279 7.59259 7.20279 7.28857 7.50685C6.98455 7.81091 6.98455 8.30385 7.28861 8.60787L9.59706 10.9163L7.28861 13.2248C6.98455 13.5288 6.98451 14.0218 7.28857 14.3258C7.59271 14.6299 8.08564 14.6298 8.38959 14.3258L10.6981 12.0173L13.0066 14.3258C13.3105 14.6298 13.8035 14.6298 14.1076 14.3258C14.4116 14.0217 14.4116 13.5288 14.1075 13.2248Z" fill="#252525"/>
</g>
<defs>
<clipPath id="clip0_118_1409">
<rect width="19.9307" height="19.9307" fill="white" transform="translate(0.73291 0.951172)"/>
</clipPath>
</defs>
</svg>