<svg xmlns="http://www.w3.org/2000/svg" width="27" height="28" viewBox="0 0 27 28" fill="none">
  <g clip-path="url(#clip0_269_4620)">
    <path d="M24.0469 4.71875H18.7734V3.66406C18.7734 1.9194 17.354 0.5 15.6094 0.5H11.3906C9.64596 0.5 8.22656 1.9194 8.22656 3.66406V4.71875H2.95312C2.37062 4.71875 1.89844 5.19093 1.89844 5.77344C1.89844 6.35594 2.37062 6.82812 2.95312 6.82812C3.53468 6.82812 4.00781 7.30126 4.00781 7.88281V24.3359C4.00781 26.0806 5.42721 27.5 7.17188 27.5H19.8281C21.5728 27.5 22.9922 26.0806 22.9922 24.3359V7.88281C22.9922 7.30126 23.4653 6.82812 24.0469 6.82812C24.6294 6.82812 25.1016 6.35594 25.1016 5.77344C25.1016 5.19093 24.6294 4.71875 24.0469 4.71875ZM10.3359 3.66406C10.3359 3.08251 10.8091 2.60938 11.3906 2.60938H15.6094C16.1909 2.60938 16.6641 3.08251 16.6641 3.66406V4.71875H10.3359V3.66406ZM20.8828 7.88281V24.3359C20.8828 24.9175 20.4097 25.3906 19.8281 25.3906H7.17188C6.59032 25.3906 6.11719 24.9175 6.11719 24.3359V7.88281C6.11719 7.51309 6.05285 7.15824 5.93578 6.82812H21.0643C20.9471 7.15824 20.8828 7.51309 20.8828 7.88281Z" fill="#C60000"/>
    <path d="M9.28125 8.9375C8.69875 8.9375 8.22656 9.40968 8.22656 9.99219V22.2266C8.22656 22.8091 8.69875 23.2812 9.28125 23.2812C9.86375 23.2812 10.3359 22.8091 10.3359 22.2266V9.99219C10.3359 9.40968 9.86375 8.9375 9.28125 8.9375Z" fill="#C60000"/>
    <path d="M13.5 8.9375C12.9175 8.9375 12.4453 9.40968 12.4453 9.99219V22.2266C12.4453 22.8091 12.9175 23.2812 13.5 23.2812C14.0825 23.2812 14.5547 22.8091 14.5547 22.2266V9.99219C14.5547 9.40968 14.0825 8.9375 13.5 8.9375Z" fill="#C60000"/>
    <path d="M16.6641 9.99219V22.2266C16.6641 22.8091 17.1362 23.2812 17.7188 23.2812C18.3013 23.2812 18.7734 22.8091 18.7734 22.2266V9.99219C18.7734 9.40968 18.3013 8.9375 17.7188 8.9375C17.1362 8.9375 16.6641 9.40968 16.6641 9.99219Z" fill="#C60000"/>
  </g>
  <defs>
    <clipPath id="clip0_269_4620">
      <rect width="27" height="27" fill="white" transform="translate(0 0.5)"/>
    </clipPath>
  </defs>
</svg>