<svg width="22" height="21" viewBox="0 0 22 21" fill="none" xmlns="http://www.w3.org/2000/svg">
<g id="Edit Button" clip-path="url(#clip0_118_2181)">
<g id="Group">
<path id="Vector" d="M20.2529 0.769067L20.2284 0.746735C19.7602 0.319055 19.1533 0.0834961 18.5195 0.0834961C17.8089 0.0834961 17.1266 0.3843 16.6476 0.908711L7.58957 10.8254C7.507 10.9158 7.44438 11.0224 7.40567 11.1385L6.34058 14.3315C6.21743 14.7006 6.27924 15.1089 6.50588 15.4235C6.73432 15.7406 7.10235 15.9299 7.49044 15.9299C7.65831 15.9299 7.82244 15.8954 7.97806 15.8273L11.0619 14.4782C11.174 14.4292 11.2746 14.3572 11.3571 14.2668L20.4152 4.35015C21.3578 3.31829 21.2851 1.71194 20.2529 0.769067ZM8.38125 13.7417L9.00624 11.868L9.05895 11.8103L10.2435 12.8923L10.1908 12.95L8.38125 13.7417ZM19.1237 3.17043L11.4232 11.6008L10.2387 10.5189L17.9391 2.08843C18.0897 1.92354 18.2958 1.8327 18.5195 1.8327C18.7157 1.8327 18.9036 1.9057 19.0491 2.03852L19.0735 2.06085C19.3932 2.35291 19.4157 2.85067 19.1237 3.17043Z" fill="#0069E5"/>
<path id="Vector_2" d="M18.4976 8.15247C18.0145 8.15247 17.623 8.54406 17.623 9.02707V16.4523C17.623 17.6787 16.6251 18.6765 15.3987 18.6765H4.79862C3.57214 18.6765 2.5744 17.6787 2.5744 16.4523V5.93827C2.5744 4.71185 3.5722 3.71405 4.79862 3.71405H12.471C12.954 3.71405 13.3456 3.32246 13.3456 2.83944C13.3456 2.35643 12.954 1.96484 12.471 1.96484H4.79862C2.60763 1.96484 0.825195 3.74734 0.825195 5.93827V16.4522C0.825195 18.6431 2.60769 20.4256 4.79862 20.4256H15.3987C17.5896 20.4256 19.3721 18.6431 19.3721 16.4522V9.02707C19.3722 8.54406 18.9806 8.15247 18.4976 8.15247Z" fill="#0069E5"/>
</g>
</g>
<defs>
<clipPath id="clip0_118_2181">
<rect width="20.3422" height="20.3422" fill="white" transform="translate(0.78125 0.0834961)"/>
</clipPath>
</defs>
</svg>
