<svg xmlns="http://www.w3.org/2000/svg" width="30" height="29"  viewBox="0 0 30 29" fill="none">
  <g clip-path="url(#clip0_545_103)">
    <path d="M14.9594 8.8335C11.837 8.8335 9.29688 11.3737 9.29688 14.496C9.29688 17.6184 11.837 20.1586 14.9594 20.1586C18.0818 20.1586 20.622 17.6184 20.622 14.496C20.622 11.3737 18.0818 8.8335 14.9594 8.8335ZM14.9594 17.8936C13.086 17.8936 11.5619 16.3694 11.5619 14.496C11.5619 12.6226 13.086 11.0985 14.9594 11.0985C16.8328 11.0985 18.3569 12.6226 18.3569 14.496C18.3569 16.3694 16.8328 17.8936 14.9594 17.8936Z" fill="#8A2BE2"/>
    <path d="M29.0824 13.8974C27.9718 12.115 22.3202 4.30371 14.9595 4.30371C7.60044 4.30371 1.9473 12.1149 0.836597 13.8974L0.463379 14.4963L0.836597 15.0952C1.94719 16.8776 7.5988 24.6889 14.9595 24.6889C22.3185 24.6889 27.9717 16.8777 29.0824 15.0952L29.4556 14.4963L29.0824 13.8974ZM14.9595 22.4238C9.2496 22.4238 4.54822 16.4355 3.17528 14.4954C4.54567 12.5537 9.23499 6.56873 14.9595 6.56873C20.669 6.56873 25.3701 12.5562 26.7437 14.4972C25.3733 16.4389 20.684 22.4238 14.9595 22.4238Z" fill="#8A2BE2"/>
  </g>
  <defs>
    <clipPath id="clip0_545_103">
      <rect width="28.9922" height="28.9922" fill="white" transform="translate(0.463379)"/>
    </clipPath>
  </defs>
</svg>