<svg width="24" height="24" viewBox="0 0 24 24" fill="none" xmlns="http://www.w3.org/2000/svg">
<g clip-path="url(#clip0_424_984)">
<path d="M2.09564 8.45619H21.3539V7.01763C21.3539 6.07953 20.609 5.32901 19.6651 5.32901H12.5521C11.6367 5.32901 10.7781 4.82855 10.3117 4.04401L9.7205 3.03751C9.41338 2.5257 8.85621 2.20166 8.25908 2.20166H3.60243C3.13041 2.20166 2.6926 2.40076 2.36855 2.74191C2.04434 3.08305 1.87385 3.53779 1.89654 4.00981L2.09564 8.45619Z" fill="#990000"/>
<path d="M22.3833 9.36572H0.879181C0.680078 9.36572 0.498077 9.44529 0.36162 9.59885C0.230921 9.75224 0.174034 9.94 0.202478 10.1389L1.61835 20.2827C1.73771 21.1185 2.45978 21.761 3.30697 21.761H19.9839C20.8311 21.761 21.5589 21.1185 21.6725 20.2769L23.06 10.1333C23.0884 9.93424 23.0315 9.74665 22.9008 9.59309C22.7644 9.44529 22.5824 9.36572 22.3833 9.36572ZM15.6682 19.8733C15.5773 19.9642 15.4635 20.0097 15.3442 20.0097C15.2304 20.0097 15.1111 19.9642 15.0257 19.879L13.2802 18.1391C12.6093 18.6679 11.7563 18.9863 10.8352 18.9863C8.6576 18.9863 6.88924 17.2235 6.88924 15.0516C6.88924 12.8796 8.6576 11.117 10.8352 11.117C13.0129 11.117 14.7813 12.8796 14.7813 15.0516C14.7813 15.9727 14.4628 16.8257 13.9227 17.4966L15.6626 19.2308C15.8445 19.407 15.8445 19.697 15.6682 19.8733Z" fill="#990000"/>
<path d="M10.8331 12.0269C9.16162 12.0269 7.79688 13.3858 7.79688 15.0518C7.79688 16.7177 9.15586 18.0767 10.8331 18.0767C11.6576 18.0767 12.4082 17.7469 12.954 17.2124C12.9597 17.2068 12.9655 17.2011 12.9711 17.1955C12.9768 17.1897 12.9882 17.184 12.9938 17.1726C13.534 16.6268 13.8694 15.8763 13.8694 15.0518C13.8696 13.3858 12.5106 12.0269 10.8331 12.0269Z" fill="#990000"/>
</g>
<defs>
<clipPath id="clip0_424_984">
<rect width="22.8718" height="22.8718" fill="white" transform="translate(0.195312 0.54834)"/>
</clipPath>
</defs>
</svg>
