<svg xmlns="http://www.w3.org/2000/svg" width="27" height="27" viewBox="0 0 27 27" fill="none">
<path d="M16.0452 7.10657L17.8206 8.41999C18.0204 8.56781 17.9194 8.89493 17.6668 8.8965L17.1096 8.89989C17.1091 8.89989 17.1086 8.89989 17.108 8.89989C16.9647 8.89989 16.8477 8.7839 16.8468 8.64058C16.8442 8.22136 16.5025 7.88276 16.0831 7.8862C15.6639 7.88878 15.3261 8.23073 15.3287 8.64994C15.3337 9.45989 15.8821 10.1412 16.6253 10.3511V10.3878C16.6253 10.807 16.9652 11.1469 17.3844 11.1469C17.8035 11.1469 18.1434 10.807 18.1434 10.3878V10.3495C18.4392 10.2675 18.7099 10.1098 18.9313 9.88554C19.2654 9.54718 19.4477 9.09902 19.4444 8.62236V8.61761C19.4406 8.06084 19.1711 7.5307 18.7235 7.19953L16.9482 5.88616C16.7465 5.73697 16.8525 5.41553 17.1036 5.41553H17.6616C17.8057 5.41553 17.9229 5.53258 17.9229 5.67645C17.9229 6.09567 18.2627 6.43554 18.6819 6.43554C19.1011 6.43554 19.4409 6.09567 19.4409 5.67645C19.4409 4.86246 18.8911 4.17482 18.1434 3.9642V3.92767C18.1434 3.50845 17.8035 3.16858 17.3843 3.16858C16.9652 3.16858 16.6253 3.50845 16.6253 3.92767V3.96319C15.8758 4.17265 15.3242 4.86114 15.3242 5.67645C15.3243 6.23792 15.5938 6.77252 16.0452 7.10657Z" fill="#006B07"/>
<path d="M17.3849 13.5672C20.9201 13.5672 23.7961 10.6919 23.7961 7.15762C23.7961 3.62332 20.92 0.748047 17.3849 0.748047C13.8497 0.748047 10.9736 3.62337 10.9736 7.15767C10.9736 10.692 13.8497 13.5672 17.3849 13.5672ZM17.3849 2.26622C20.083 2.26622 22.278 4.46054 22.278 7.15767C22.278 9.85481 20.083 12.0491 17.3849 12.0491C14.6868 12.0491 12.4918 9.85481 12.4918 7.15767C12.4918 4.46054 14.6868 2.26622 17.3849 2.26622Z" fill="#006B07"/>
<path d="M25.979 15.2815C25.158 14.2246 23.6759 14.0257 22.609 14.7659L19.7209 16.6981C19.3195 15.9508 18.5304 15.4414 17.6243 15.4414H15.5641C14.5241 14.466 13.1357 13.9122 11.7037 13.9122C10.6289 13.9122 9.58332 14.2159 8.68016 14.7903C7.86637 15.308 7.2007 16.023 6.74327 16.8673L6.35654 17.1037L6.25634 16.8107C6.12072 16.4141 5.68936 16.2024 5.29271 16.3379L1.10462 17.769C0.708128 17.9045 0.496191 18.3362 0.631814 18.7329L3.1658 26.1447C3.30147 26.5416 3.73299 26.7529 4.12943 26.6175L8.31752 25.1865C8.69154 25.0587 8.93658 24.6504 8.78192 24.1981L15.4275 23.9923C17.2373 23.9899 18.9729 23.4341 20.4472 22.3848L25.4588 18.82C26.6077 18.0022 26.8449 16.3956 25.979 15.2815ZM4.35675 24.9354L2.3139 18.9602L5.06539 18.02C5.36178 18.887 6.80233 23.1005 7.10824 23.9953L4.35675 24.9354ZM24.5787 17.583L19.5671 21.1477C18.3479 22.0155 16.9123 22.4741 15.4155 22.4741C15.4077 22.4741 15.3998 22.4742 15.392 22.4745L8.26807 22.695L6.85971 18.5755L7.71571 18.052C7.71591 18.0519 7.71607 18.0518 7.71627 18.0516C7.84228 17.9745 7.94081 17.8613 8.00093 17.7388C8.69954 16.3149 10.1184 15.4303 11.7037 15.4303C12.8493 15.4303 13.9134 15.8889 14.6998 16.7217C14.8446 16.8751 15.0527 16.9594 15.2517 16.9594H17.6243C18.0985 16.9594 18.4844 17.345 18.4844 17.819C18.4844 18.2881 18.105 18.6787 17.6243 18.6787H13.3416C12.9223 18.6787 12.5825 19.0186 12.5825 19.4378C12.5825 19.857 12.9224 20.1969 13.3416 20.1969H17.6243C18.26 20.1969 18.8573 19.9493 19.3056 19.5003C19.6193 19.1868 19.8342 18.8011 19.9356 18.3808L23.4589 16.0238C23.4631 16.0209 23.4673 16.018 23.4715 16.0151C23.887 15.7249 24.4625 15.8039 24.7802 16.2129C25.1153 16.6441 25.0237 17.2662 24.5787 17.583Z" fill="#006B07"/>
</svg>