<svg xmlns="http://www.w3.org/2000/svg" width="24" height="24" viewBox="0 0 24 24" fill="none">
<g clip-path="url(#clip0_315_2826)">
<path d="M19.3423 16.8102C19.1611 16.5262 19.0416 16.2072 18.9917 15.874L18.4379 12.2874C18.3884 11.9593 18.2608 11.6479 18.0659 11.3794C17.8709 11.1108 17.6143 10.8931 17.3177 10.7444L15.2109 9.68928V4.82743C15.2114 4.67404 15.1815 4.52208 15.1227 4.38038C15.064 4.23869 14.9777 4.11009 14.8687 4.00208L11.4522 0.58557C11.3442 0.476661 11.2156 0.390323 11.0739 0.331582C10.9322 0.272842 10.7803 0.242871 10.6269 0.243415H2.4237C2.1154 0.243415 1.81972 0.36589 1.60171 0.583896C1.3837 0.801902 1.26123 1.09758 1.26123 1.40589V17.6805C1.26123 17.9888 1.3837 18.2845 1.60171 18.5025C1.81972 18.7205 2.1154 18.843 2.4237 18.843H9.59616L10.1534 19.5862C10.3412 19.8364 10.5847 20.0395 10.8645 20.1795C11.1443 20.3196 11.4528 20.3926 11.7657 20.3929H13.7807L14.6603 22.7411C14.7438 22.9623 14.8929 23.1528 15.0875 23.2871C15.2821 23.4215 15.513 23.4932 15.7495 23.4929H21.7432C21.9663 23.4933 22.1852 23.4323 22.3759 23.3164C22.5665 23.2005 22.7215 23.0344 22.8239 22.8361C22.9262 22.6379 22.9719 22.4152 22.9559 22.1927C22.9399 21.9702 22.8629 21.7564 22.7333 21.5748L19.3423 16.8102ZM11.336 1.56631L13.888 4.11832H11.7235C11.6207 4.11832 11.5222 4.0775 11.4495 4.00483C11.3768 3.93216 11.336 3.8336 11.336 3.73083V1.56631ZM10.654 4.18575C10.7264 4.35082 10.8362 4.49676 10.9749 4.61199C11.3073 5.23794 11.4148 5.95907 11.2794 6.65478C11.1439 7.35049 10.7737 7.97861 10.2307 8.43408C9.6876 8.88956 9.00463 9.14479 8.29596 9.15708C7.58729 9.16937 6.89588 8.93799 6.33736 8.50162L10.654 4.18575ZM5.79022 7.95448C5.32709 7.35876 5.09739 6.61444 5.14428 5.86133C5.19116 5.10821 5.5114 4.39813 6.04485 3.86444C6.57829 3.33076 7.28823 3.01021 8.04133 2.96299C8.79442 2.91577 9.53884 3.14513 10.1348 3.608L5.79022 7.95448ZM2.4237 18.068C2.32093 18.068 2.22237 18.0272 2.14971 17.9545C2.07704 17.8818 2.03621 17.7833 2.03621 17.6805V1.40589C2.03621 1.30312 2.07704 1.20456 2.14971 1.13189C2.22237 1.05922 2.32093 1.0184 2.4237 1.0184H10.561V2.96011C9.81372 2.39106 8.88743 2.10827 7.94973 2.1629C7.01203 2.21754 6.12485 2.60599 5.44871 3.25798C4.77256 3.90997 4.3521 4.78243 4.26341 5.71753C4.17471 6.65262 4.42363 7.58858 4.96513 8.35607C5.50664 9.12356 6.30496 9.67189 7.21566 9.90185C8.12637 10.1318 9.08931 10.0282 9.93026 9.60982C10.7712 9.19141 11.4346 8.48583 11.8005 7.62073C12.1664 6.75562 12.2105 5.78814 11.925 4.89331H14.4359V9.3045C14.2677 9.22214 14.085 9.17371 13.8981 9.16198C13.7112 9.15025 13.5238 9.17545 13.3467 9.23613C12.9889 9.35869 12.6944 9.61835 12.5281 9.958C12.3618 10.2977 12.3372 10.6895 12.4597 11.0473C12.5823 11.405 12.842 11.6995 13.1816 11.8658L14.4394 12.4951L14.4359 17.6805C14.4359 17.7833 14.3951 17.8818 14.3224 17.9545C14.2498 18.0272 14.1512 18.068 14.0484 18.068H2.4237ZM22.1361 22.4792C22.0996 22.5518 22.0434 22.6127 21.9739 22.6549C21.9044 22.6971 21.8245 22.7189 21.7432 22.7179H15.7495C15.6702 22.7178 15.5927 22.6937 15.5273 22.6488C15.462 22.6038 15.4118 22.5401 15.3833 22.466L14.4111 19.8698C14.3835 19.7959 14.334 19.7322 14.2692 19.6872C14.2043 19.6422 14.1273 19.618 14.0484 19.618H11.7661C11.5737 19.6179 11.3839 19.5732 11.2118 19.4871C11.0397 19.4011 10.89 19.2762 10.7745 19.1224L10.5645 18.843H14.0484C14.3567 18.843 14.6524 18.7205 14.8704 18.5025C15.0884 18.2845 15.2109 17.9888 15.2109 17.6805L15.2144 12.8834L16.1978 13.3766C16.2897 13.4229 16.3962 13.4307 16.4939 13.3985C16.5915 13.3662 16.6724 13.2965 16.7186 13.2046C16.7649 13.1127 16.7727 13.0062 16.7405 12.9086C16.7082 12.8109 16.6385 12.7301 16.5466 12.6838L13.528 11.1726C13.3734 11.0951 13.2559 10.9593 13.2014 10.7951C13.1744 10.7138 13.1637 10.628 13.1699 10.5426C13.1761 10.4572 13.199 10.3738 13.2374 10.2973C13.2758 10.2207 13.3289 10.1524 13.3937 10.0964C13.4584 10.0404 13.5336 9.99764 13.6149 9.97065C13.7791 9.91615 13.9581 9.9291 14.1128 10.0066L16.9724 11.4369C17.1584 11.5303 17.3192 11.667 17.4412 11.8357C17.5632 12.0043 17.6428 12.1997 17.6734 12.4056L18.2267 15.9922C18.2937 16.4377 18.4545 16.8639 18.6983 17.2426L22.1009 22.0251C22.1486 22.0899 22.1773 22.1668 22.1835 22.2471C22.1897 22.3274 22.1733 22.4078 22.1361 22.4792Z" fill="#FF6752"/>
<path d="M3.97343 11.8682H10.5608C10.6635 11.8682 10.7621 11.8274 10.8348 11.7547C10.9074 11.682 10.9483 11.5835 10.9483 11.4807C10.9483 11.3779 10.9074 11.2794 10.8348 11.2067C10.7621 11.134 10.6635 11.0932 10.5608 11.0932H3.97343C3.87066 11.0932 3.7721 11.134 3.69943 11.2067C3.62676 11.2794 3.58594 11.3779 3.58594 11.4807C3.58594 11.5835 3.62676 11.682 3.69943 11.7547C3.7721 11.8274 3.87066 11.8682 3.97343 11.8682Z" fill="#FF6752"/>
<path d="M12.4982 13.4182H3.97343C3.87066 13.4182 3.7721 13.459 3.69943 13.5316C3.62676 13.6043 3.58594 13.7029 3.58594 13.8056C3.58594 13.9084 3.62676 14.007 3.69943 14.0796C3.7721 14.1523 3.87066 14.1931 3.97343 14.1931H12.4982C12.601 14.1931 12.6996 14.1523 12.7722 14.0796C12.8449 14.007 12.8857 13.9084 12.8857 13.8056C12.8857 13.7029 12.8449 13.6043 12.7722 13.5316C12.6996 13.459 12.601 13.4182 12.4982 13.4182Z" fill="#FF6752"/>
<path d="M9.3983 15.743H3.97343C3.87066 15.743 3.7721 15.7839 3.69943 15.8565C3.62676 15.9292 3.58594 16.0278 3.58594 16.1305C3.58594 16.2333 3.62676 16.3319 3.69943 16.4045C3.7721 16.4772 3.87066 16.518 3.97343 16.518H9.3983C9.50107 16.518 9.59963 16.4772 9.6723 16.4045C9.74497 16.3319 9.78579 16.2333 9.78579 16.1305C9.78579 16.0278 9.74497 15.9292 9.6723 15.8565C9.59963 15.7839 9.50107 15.743 9.3983 15.743Z" fill="#FF6752"/>
</g>
<defs>
<clipPath id="clip0_315_2826">
<rect width="23.2495" height="23.2495" fill="white" transform="translate(0.486328 0.243408)"/>
</clipPath>
</defs>
</svg>