<svg width="17" height="16" viewBox="0 0 17 16" fill="none" xmlns="http://www.w3.org/2000/svg">
<g clip-path="url(#clip0_132_1372)">
<path d="M8.88208 0C4.48595 0 0.927734 3.55762 0.927734 7.95435C0.927734 12.3504 4.48532 15.9087 8.88208 15.9087C13.2782 15.9087 16.8364 12.351 16.8364 7.95435C16.8364 3.55828 13.2788 0 8.88208 0ZM8.88208 14.9729C7.11509 14.9729 5.49874 14.3163 4.26357 13.2345L5.99178 11.5064C5.59544 11.448 5.22448 11.3765 4.88235 11.2924L3.60192 12.5729C2.52016 11.3377 1.86354 9.72136 1.86354 7.95435C1.86354 4.08432 5.01206 0.935805 8.88208 0.935805C10.6491 0.935805 12.2654 1.59243 13.5006 2.67416L12.1282 4.04652C12.4172 4.18714 12.7002 4.34604 12.9754 4.52278L14.1623 3.33587C15.244 4.571 15.9006 6.18736 15.9006 7.95435C15.9006 11.8244 12.7521 14.9729 8.88208 14.9729Z" fill="#C60000"/>
<path d="M10.9875 7.01864C11.1821 7.01864 11.5768 6.52585 11.6706 5.54394L11.7335 4.8972C11.2943 4.68209 10.8232 4.50644 10.3282 4.38672C10.2927 4.923 10.2856 4.95213 10.2856 5.14703C10.2856 6.30805 10.7401 7.01864 10.9875 7.01864Z" fill="#C60000"/>
<path d="M12.6237 5.4129L12.6022 5.63394C12.4696 7.02168 11.8208 7.95464 10.9876 7.95464C10.054 7.95464 9.34995 6.74774 9.34995 5.14723C9.34995 4.90754 9.35947 4.86018 9.4008 4.23447C9.04326 4.20334 8.70759 4.20375 8.34986 4.23569C8.37709 4.56079 8.41415 4.77631 8.41415 5.14723C8.41415 6.74774 7.71011 7.95464 6.77649 7.95464C5.94331 7.95464 5.29445 7.02168 5.16185 5.6331L5.14189 5.4119C3.71616 6.37426 2.79932 7.70394 2.79932 8.57851C2.79932 10.0859 5.52267 10.7621 8.88205 10.7621C12.2414 10.7621 14.9648 10.0859 14.9648 8.57851C14.9648 7.70425 14.0486 6.37519 12.6237 5.4129Z" fill="#C60000"/>
<path d="M6.77626 7.01837C7.02369 7.01837 7.47812 6.30778 7.47812 5.14676C7.47812 4.84231 7.44798 4.67087 7.42428 4.38916C6.9351 4.50841 6.46929 4.68225 6.03467 4.89478L6.09341 5.54613C6.18695 6.52557 6.58168 7.01837 6.77626 7.01837Z" fill="#C60000"/>
</g>
<defs>
<clipPath id="clip0_132_1372">
<rect width="15.9087" height="15.9087" fill="white" transform="translate(0.927734)"/>
</clipPath>
</defs>
</svg>
