<svg xmlns="http://www.w3.org/2000/svg" width="24" height="24" viewBox="0 0 24 24" fill="none">
<g clip-path="url(#clip0_403_449)">
<path d="M17.7264 23.2153C20.9493 23.2153 23.5737 20.5909 23.5737 17.3679C23.5737 14.1496 20.9585 11.5297 17.7448 11.5205C16.8055 10.8667 15.6176 10.3649 14.2594 10.0334C15.2309 9.01122 15.8294 7.62534 15.8294 6.10593C15.8294 2.95663 13.2694 0.396667 10.1201 0.396667C6.97083 0.396667 4.41087 2.95663 4.41087 6.10593C4.41087 7.62534 5.00942 9.00661 5.98092 10.0334C4.48454 10.3925 3.19995 10.968 2.21925 11.7185C0.764305 12.8327 0 14.3153 0 16.0189V20.2778C0 21.8985 1.50098 23.2153 3.34729 23.2153M22.3766 17.3679C22.3766 19.9325 20.2909 22.0182 17.7264 22.0182C15.1618 22.0182 13.0761 19.9325 13.0761 17.3679C13.0761 14.8034 15.1618 12.7176 17.7264 12.7176C20.2909 12.7176 22.3766 14.8034 22.3766 17.3679ZM10.1155 1.59377C12.6064 1.59377 14.6277 3.61964 14.6277 6.10593C14.6277 8.59223 12.6018 10.6181 10.1155 10.6181C7.62924 10.6181 5.60337 8.59223 5.60337 6.10593C5.60337 3.61964 7.62924 1.59377 10.1155 1.59377ZM1.1971 16.0189C1.1971 14.6836 1.78645 13.5602 2.94211 12.6716C3.98267 11.8751 5.44682 11.2995 7.18723 11.0095C8.04362 11.5251 9.04735 11.8198 10.1155 11.8198C11.1837 11.8198 12.1874 11.5251 13.0438 11.0095C14.089 11.1844 15.0375 11.4607 15.8524 11.829C13.5457 12.6117 11.8836 14.7988 11.8836 17.3679C11.8836 19.2603 12.7906 20.9454 14.1903 22.0182H3.34729C2.15939 22.0182 1.1971 21.2355 1.1971 20.2778V16.0189ZM16.9897 17.9435L19.72 15.2131C19.9548 14.9783 20.3324 14.9783 20.5672 15.2131C20.802 15.448 20.802 15.8255 20.5672 16.0603L17.4133 19.2142C17.3028 19.3247 17.1508 19.3892 16.9897 19.3892C16.8331 19.3892 16.6766 19.3247 16.5661 19.2142L14.8901 17.5383C14.6553 17.3035 14.6553 16.9259 14.8901 16.6911C15.125 16.4563 15.5025 16.4563 15.7373 16.6911L16.9897 17.9435Z" fill="#038600"/>
</g>
<defs>
<clipPath id="clip0_403_449">
<rect width="23.5737" height="23.5737" fill="white" transform="translate(0 0.019104)"/>
</clipPath>
</defs>
</svg>