<svg width="31" height="31" viewBox="0 0 31 31" fill="none" xmlns="http://www.w3.org/2000/svg">
<g clip-path="url(#clip0_922_177)">
<path d="M15.7554 0C12.7691 0 9.84979 0.885548 7.36676 2.54466C4.88372 4.20377 2.94843 6.56193 1.80561 9.32094C0.662792 12.0799 0.363779 15.1159 0.946382 18.0448C1.52899 20.9738 2.96704 23.6642 5.07869 25.7758C7.19034 27.8875 9.88074 29.3255 12.8097 29.9081C15.7386 30.4907 18.7746 30.1917 21.5336 29.0489C24.2926 27.9061 26.6507 25.9708 28.3098 23.4877C29.9689 21.0047 30.8545 18.0854 30.8545 15.0991C30.85 11.096 29.2578 7.25803 26.4271 4.42736C23.5965 1.59669 19.7585 0.00446273 15.7554 0ZM15.7554 27.6817C13.2668 27.6817 10.8341 26.9438 8.76486 25.5612C6.69566 24.1786 5.08292 22.2134 4.13057 19.9143C3.17822 17.6151 2.92905 15.0852 3.41455 12.6444C3.90005 10.2036 5.09843 7.96159 6.85813 6.20188C8.61784 4.44217 10.8598 3.24379 13.3006 2.75829C15.7414 2.27279 18.2714 2.52197 20.5705 3.47431C22.8697 4.42666 24.8348 6.0394 26.2174 8.1086C27.6 10.1778 28.338 12.6105 28.338 15.0991C28.3342 18.4351 27.0073 21.6333 24.6484 23.9922C22.2896 26.351 19.0913 27.6779 15.7554 27.6817Z" fill="#888888"/>
<path d="M20.4194 10.4351C20.3026 10.3182 20.164 10.2255 20.0113 10.1622C19.8587 10.099 19.6951 10.0664 19.5298 10.0664C19.3646 10.0664 19.201 10.099 19.0483 10.1622C18.8957 10.2255 18.757 10.3182 18.6402 10.4351L15.755 13.3202L12.8699 10.4351C12.6325 10.2059 12.3147 10.0791 11.9848 10.082C11.6549 10.0848 11.3393 10.2172 11.106 10.4504C10.8727 10.6837 10.7404 10.9993 10.7375 11.3292C10.7346 11.6592 10.8615 11.977 11.0907 12.2143L13.9757 15.0995L11.0907 17.9847C10.9705 18.1008 10.8746 18.2396 10.8087 18.3931C10.7428 18.5466 10.708 18.7117 10.7066 18.8788C10.7051 19.0459 10.737 19.2116 10.8002 19.3662C10.8635 19.5208 10.9569 19.6613 11.0751 19.7795C11.1932 19.8976 11.3337 19.991 11.4883 20.0543C11.643 20.1176 11.8087 20.1494 11.9757 20.1479C12.1428 20.1465 12.3079 20.1118 12.4614 20.0458C12.6149 19.9799 12.7538 19.884 12.8699 19.7639L15.755 16.8788L18.6402 19.7639C18.8775 19.9931 19.1954 20.1199 19.5253 20.117C19.8552 20.1142 20.1708 19.9818 20.4041 19.7485C20.6374 19.5152 20.7697 19.1997 20.7726 18.8697C20.7754 18.5398 20.6486 18.222 20.4194 17.9847L17.5344 15.0995L20.4194 12.2143C20.5363 12.0975 20.629 11.9588 20.6923 11.8062C20.7556 11.6536 20.7881 11.4899 20.7881 11.3247C20.7881 11.1595 20.7556 10.9959 20.6923 10.8432C20.629 10.6906 20.5363 10.5519 20.4194 10.4351Z" fill="#888888"/>
</g>
<defs>
<clipPath id="clip0_922_177">
<rect width="30.1982" height="30.1982" fill="white" transform="translate(0.655762)"/>
</clipPath>
</defs>
</svg>
