<svg xmlns="http://www.w3.org/2000/svg" width="24" height="23" viewBox="0 0 24 23" fill="none">
<g clip-path="url(#clip0_321_2853)">
<path d="M12.0831 1.09668C10.0115 1.09668 7.98635 1.71099 6.26386 2.86192C4.54137 4.01285 3.19885 5.64871 2.40608 7.56264C1.6133 9.47657 1.40588 11.5826 1.81003 13.6144C2.21418 15.6462 3.21176 17.5126 4.67662 18.9774C6.14148 20.4423 8.00782 21.4399 10.0396 21.844C12.0715 22.2482 14.1775 22.0408 16.0914 21.248C18.0053 20.4552 19.6412 19.1127 20.7921 17.3902C21.9431 15.6677 22.5574 13.6426 22.5574 11.571C22.5541 8.79403 21.4495 6.13175 19.4859 4.16815C17.5223 2.20455 14.86 1.09996 12.0831 1.09668ZM12.0831 20.1409C10.3881 20.1409 8.73121 19.6383 7.3219 18.6966C5.91259 17.7549 4.81417 16.4165 4.16553 14.8505C3.5169 13.2846 3.34719 11.5615 3.67786 9.89908C4.00853 8.23669 4.82473 6.70968 6.02325 5.51116C7.22177 4.31264 8.74878 3.49644 10.4112 3.16577C12.0736 2.8351 13.7967 3.00481 15.3626 3.65344C16.9286 4.30208 18.267 5.4005 19.2087 6.80981C20.1503 8.21912 20.653 9.87602 20.653 11.571C20.6504 13.8431 19.7467 16.0214 18.1401 17.628C16.5335 19.2346 14.3552 20.1383 12.0831 20.1409Z" fill="#FF6752"/>
<path d="M15.8919 10.6187H8.27423C8.02169 10.6187 7.77949 10.719 7.60092 10.8975C7.42234 11.0761 7.32202 11.3183 7.32202 11.5709C7.32202 11.8234 7.42234 12.0656 7.60092 12.2442C7.77949 12.4227 8.02169 12.5231 8.27423 12.5231H15.8919C16.1444 12.5231 16.3866 12.4227 16.5652 12.2442C16.7438 12.0656 16.8441 11.8234 16.8441 11.5709C16.8441 11.3183 16.7438 11.0761 16.5652 10.8975C16.3866 10.719 16.1444 10.6187 15.8919 10.6187Z" fill="#FF6752"/>
</g>
<defs>
<clipPath id="clip0_321_2853">
<rect width="22.853" height="22.853" fill="white" transform="translate(0.656616 0.144531)"/>
</clipPath>
</defs>
</svg>