<svg xmlns="http://www.w3.org/2000/svg" width="29" height="30" viewBox="0 0 29 30" fill="none">
<g clip-path="url(#clip0_354_2875)">
<path d="M14.0012 14.5696C15.8811 14.5696 17.5087 13.8954 18.839 12.5651C20.1688 11.2351 20.8433 9.60768 20.8433 7.72759C20.8433 5.84814 20.169 4.22053 18.8388 2.89005C17.5085 1.56022 15.8809 0.885986 14.0012 0.885986C12.1211 0.885986 10.4937 1.56022 9.16368 2.89027C7.83363 4.22031 7.15918 5.84792 7.15918 7.72759C7.15918 9.60768 7.83363 11.2353 9.16368 12.5653C10.4942 13.8952 12.1218 14.5696 14.0012 14.5696ZM10.3409 4.0673C11.3615 3.04674 12.5587 2.55066 14.0012 2.55066C15.4435 2.55066 16.641 3.04674 17.6617 4.0673C18.6823 5.08808 19.1786 6.28549 19.1786 7.72759C19.1786 9.17011 18.6823 10.3673 17.6617 11.3881C16.641 12.4089 15.4435 12.9049 14.0012 12.9049C12.5591 12.9049 11.3619 12.4086 10.3409 11.3881C9.32016 10.3675 8.82385 9.17011 8.82385 7.72759C8.82385 6.28549 9.32016 5.08808 10.3409 4.0673Z" fill="#FF0000"/>
<path d="M25.9725 22.7293C25.9342 22.1758 25.8566 21.572 25.7424 20.9344C25.6271 20.292 25.4786 19.6848 25.3009 19.1297C25.1171 18.5561 24.8677 17.9895 24.5588 17.4467C24.2387 16.8832 23.8625 16.3925 23.4403 15.9887C22.9988 15.5663 22.4583 15.2267 21.8333 14.979C21.2104 14.7326 20.5201 14.6078 19.7817 14.6078C19.4918 14.6078 19.2113 14.7267 18.6697 15.0794C18.3364 15.2967 17.9465 15.5481 17.5113 15.8262C17.1392 16.0633 16.6351 16.2854 16.0124 16.4866C15.405 16.6831 14.7882 16.7828 14.1792 16.7828C13.5706 16.7828 12.9538 16.6831 12.3459 16.4866C11.7239 16.2857 11.2195 16.0635 10.8481 15.8264C10.417 15.551 10.0269 15.2995 9.68858 15.0791C9.14742 14.7265 8.86697 14.6075 8.57699 14.6075C7.83839 14.6075 7.14834 14.7326 6.52568 14.9792C5.90108 15.2265 5.36034 15.5661 4.91844 15.989C4.49626 16.3929 4.12002 16.8834 3.80013 17.4467C3.49173 17.9895 3.24206 18.5559 3.05828 19.13C2.88078 19.685 2.73232 20.292 2.61702 20.9344C2.50259 21.5712 2.42522 22.1752 2.38686 22.73C2.34915 23.2725 2.33008 23.837 2.33008 24.4075C2.33008 25.8903 2.80146 27.0907 3.731 27.9761C4.64905 28.8497 5.86358 29.2927 7.341 29.2927H21.019C22.496 29.2927 23.7106 28.8497 24.6288 27.9761C25.5586 27.0914 26.03 25.8905 26.03 24.4072C26.0297 23.8349 26.0105 23.2703 25.9725 22.7293ZM23.481 26.77C22.8744 27.3473 22.0691 27.628 21.0188 27.628H7.341C6.29053 27.628 5.48518 27.3473 4.87878 26.7702C4.28386 26.2039 3.99475 25.4308 3.99475 24.4075C3.99475 23.8752 4.01231 23.3496 4.04742 22.8451C4.08166 22.3501 4.15166 21.8063 4.25547 21.2285C4.35799 20.6579 4.48845 20.1223 4.64363 19.6375C4.79252 19.1727 4.99559 18.7123 5.24743 18.2689C5.48778 17.8463 5.76432 17.4837 6.06947 17.1916C6.3549 16.9183 6.71467 16.6946 7.13858 16.5269C7.53064 16.3717 7.97124 16.2867 8.44956 16.2739C8.50786 16.3049 8.61167 16.3641 8.77985 16.4738C9.12206 16.6968 9.5165 16.9512 9.95256 17.2297C10.4441 17.5431 11.0774 17.8261 11.834 18.0704C12.6075 18.3205 13.3963 18.4475 14.1794 18.4475C14.9624 18.4475 15.7515 18.3205 16.5246 18.0706C17.2818 17.8259 17.9149 17.5431 18.407 17.2293C18.8533 16.9441 19.2367 16.697 19.5789 16.4738C19.7471 16.3643 19.8509 16.3049 19.9092 16.2739C20.3877 16.2867 20.8283 16.3717 21.2206 16.5269C21.6443 16.6946 22.0041 16.9185 22.2895 17.1916C22.5946 17.4835 22.8712 17.8461 23.1115 18.2691C23.3636 18.7123 23.5669 19.1729 23.7155 19.6373C23.8709 20.1228 24.0016 20.6581 24.1039 21.2283C24.2075 21.8072 24.2777 22.3512 24.312 22.8453V22.8457C24.3473 23.3483 24.3651 23.8737 24.3653 24.4075C24.3651 25.431 24.076 26.2039 23.481 26.77Z" fill="#FF0000"/>
</g>
<defs>
<clipPath id="clip0_354_2875">
<rect width="28.4067" height="28.4067" fill="white" transform="translate(0 0.885986)"/>
</clipPath>
</defs>
</svg>